<svg width="716" height="68" viewBox="0 0 716 68" fill="none" xmlns="http://www.w3.org/2000/svg">
<path d="M687.84 12.0226C686.904 11.2858 685.189 10.616 683.513 11.2188C681.993 11.7881 681.447 12.7593 681.097 13.496C680.707 14.2663 680.629 15.0031 680.59 15.6394C680.512 16.9454 680.785 17.9501 681.019 18.6534C681.253 19.3566 681.486 19.6915 681.486 19.6915C681.486 19.6915 681.603 19.2897 681.837 18.6199C682.071 17.9836 682.383 17.0459 682.89 16.0747C683.162 15.6059 683.474 15.1035 683.825 14.7017C684.176 14.2998 684.644 14.0653 684.76 14.1323C684.683 14.1993 684.838 14.1993 685.15 14.5007C685.462 14.8021 685.852 15.3045 686.125 15.8738C686.709 17.0124 687.138 18.3185 687.372 19.6246C687.489 20.2943 687.606 20.8636 687.645 21.4664C687.645 22.0692 687.684 22.6385 687.645 23.1409C687.567 24.179 687.294 25.0163 686.943 25.5187C686.553 26.021 686.086 26.1884 686.086 26.1884C686.086 26.1549 686.553 26.3893 687.45 26.0544C688.307 25.7195 689.282 24.8823 689.945 23.6767C690.295 23.0739 690.568 22.4041 690.724 21.7009C690.919 20.9976 691.036 20.1604 691.075 19.3901C691.114 17.7826 690.802 16.0412 689.945 14.3668C689.36 13.5965 688.814 12.7594 687.84 12.0226Z" fill="#3F3F3F"/>
<path d="M673.223 13.3621C672.288 12.6253 670.573 11.9555 668.896 12.5583C667.376 13.1276 666.831 14.0988 666.48 14.8356C666.09 15.6058 666.012 16.3425 665.973 16.9788C665.895 18.2848 666.168 19.2895 666.402 19.9927C666.636 20.696 666.87 21.0309 666.87 21.0309C666.87 21.0309 666.987 20.6291 667.22 19.9593C667.454 19.323 667.766 18.3853 668.273 17.4142C668.546 16.9453 668.857 16.443 669.208 16.0411C669.559 15.6392 670.027 15.4049 670.144 15.4719C670.066 15.5388 670.222 15.5388 670.534 15.8402C670.845 16.1416 671.235 16.6439 671.508 17.2132C672.093 18.3518 672.521 19.6579 672.755 20.9639C672.872 21.6337 672.989 22.2031 673.028 22.8059C673.028 23.4087 673.067 23.978 673.028 24.4803C672.95 25.5184 672.677 26.3556 672.326 26.858C671.937 27.3603 671.469 27.5277 671.469 27.5277C671.469 27.4942 671.937 27.7287 672.833 27.3938C673.691 27.0589 674.665 26.2216 675.328 25.016C675.679 24.4132 675.951 23.7435 676.107 23.0402C676.302 22.337 676.419 21.4997 676.458 20.7295C676.497 19.122 676.185 17.3806 675.328 15.7062C674.743 14.936 674.159 14.0988 673.223 13.3621Z" fill="#3F3F3F"/>
<path d="M658.568 14.7017C657.632 13.965 655.917 13.2952 654.241 13.898C652.721 14.4673 652.175 15.4385 651.825 16.1752C651.435 16.9455 651.357 17.6822 651.318 18.3184C651.24 19.6245 651.513 20.6292 651.747 21.3325C651.98 22.0358 652.214 22.3706 652.214 22.3706C652.214 22.3706 652.331 21.9688 652.565 21.299C652.799 20.6627 653.111 19.725 653.618 18.7538C653.89 18.285 654.202 17.7826 654.553 17.3808C654.904 16.9789 655.372 16.7445 655.489 16.8115C655.411 16.8785 655.566 16.8784 655.878 17.1798C656.19 17.4812 656.58 17.9836 656.853 18.5529C657.437 19.6915 657.866 20.9975 658.1 22.3036C658.217 22.9734 658.334 23.5427 658.373 24.1455C658.373 24.7483 658.412 25.3176 658.373 25.82C658.295 26.8581 658.022 27.6953 657.671 28.1976C657.281 28.7 656.814 28.8675 656.814 28.8675C656.814 28.834 657.282 29.0684 658.178 28.7335C659.036 28.3986 660.01 27.5614 660.673 26.3558C661.023 25.753 661.296 25.0831 661.452 24.3799C661.647 23.6766 661.764 22.8395 661.803 22.0693C661.842 20.4618 661.53 18.7204 660.673 17.046C660.127 16.2757 659.542 15.4385 658.568 14.7017Z" fill="#3F3F3F"/>
<path d="M643.951 16.0411C643.016 15.3043 641.301 14.6346 639.625 15.2374C638.104 15.8067 637.559 16.7778 637.208 17.5146C636.818 18.2848 636.74 19.0216 636.701 19.6579C636.623 20.964 636.896 21.9686 637.13 22.6719C637.364 23.3752 637.598 23.7101 637.598 23.7101C637.598 23.7101 637.715 23.3082 637.949 22.6384C638.182 22.0021 638.494 21.0644 639.001 20.0932C639.274 19.6244 639.586 19.1221 639.936 18.7202C640.287 18.3184 640.755 18.0839 640.872 18.1509C640.794 18.2179 640.95 18.2178 641.262 18.5192C641.573 18.8206 641.963 19.323 642.236 19.8923C642.821 21.0309 643.249 22.3371 643.483 23.6431C643.6 24.3129 643.717 24.8822 643.756 25.485C643.756 26.0878 643.795 26.6571 643.756 27.1594C643.678 28.1976 643.405 29.0348 643.055 29.5371C642.665 30.0394 642.197 30.2069 642.197 30.2069C642.197 30.1734 642.665 30.4078 643.561 30.073C644.419 29.7381 645.393 28.9009 646.056 27.6953C646.407 27.0925 646.68 26.4227 646.835 25.7194C647.03 25.0162 647.147 24.1789 647.186 23.4087C647.225 21.8012 646.913 20.0598 646.056 18.3853C645.471 17.6151 644.926 16.7778 643.951 16.0411Z" fill="#3F3F3F"/>
<path d="M629.295 17.3473C628.36 16.6105 626.645 15.9407 624.969 16.5435C623.448 17.1128 622.903 18.084 622.552 18.8208C622.162 19.591 622.084 20.3277 622.045 20.964C621.967 22.2701 622.24 23.2747 622.474 23.978C622.708 24.6812 622.942 25.0161 622.942 25.0161C622.942 25.0161 623.059 24.6143 623.293 23.9445C623.526 23.3083 623.838 22.3706 624.345 21.3994C624.618 20.9305 624.93 20.4282 625.28 20.0263C625.631 19.6245 626.099 19.3901 626.216 19.4571C626.138 19.5241 626.294 19.524 626.606 19.8254C626.918 20.1268 627.307 20.6292 627.58 21.1985C628.165 22.3371 628.594 23.6431 628.828 24.9492C628.944 25.6189 629.061 26.1882 629.061 26.791C629.061 27.3938 629.1 27.9631 629.061 28.4654C628.983 29.5036 628.711 30.3409 628.36 30.8432C627.97 31.3455 627.502 31.5129 627.502 31.5129C627.502 31.4794 627.97 31.7139 628.866 31.379C629.724 31.0441 630.698 30.2068 631.361 29.0013C631.712 28.3985 631.985 27.7287 632.141 27.0254C632.336 26.3222 632.452 25.485 632.491 24.7147C632.53 23.1073 632.219 21.3659 631.361 19.6914C630.854 18.9547 630.27 18.1175 629.295 17.3473Z" fill="#3F3F3F"/>
<path d="M614.679 18.6868C613.743 17.9501 612.028 17.2803 610.352 17.8831C608.832 18.4524 608.286 19.4236 607.935 20.1603C607.546 20.9306 607.468 21.6673 607.429 22.3036C607.351 23.6096 607.624 24.6144 607.857 25.3177C608.091 26.0209 608.325 26.3558 608.325 26.3558C608.325 26.3558 608.442 25.9539 608.676 25.2841C608.91 24.6479 609.222 23.7101 609.728 22.739C610.001 22.2701 610.313 21.7678 610.664 21.3659C611.015 20.964 611.482 20.7297 611.599 20.7966C611.521 20.8636 611.677 20.8636 611.989 21.165C612.301 21.4664 612.691 21.9687 612.964 22.538C613.548 23.6767 613.977 24.9827 614.211 26.2888C614.328 26.9586 614.445 27.5279 614.445 28.1307C614.445 28.7335 614.484 29.3028 614.445 29.8052C614.367 30.8433 614.094 31.6805 613.743 32.1829C613.353 32.6852 612.886 32.8527 612.886 32.8527C612.886 32.8192 613.353 33.0536 614.25 32.7187C615.107 32.3838 616.082 31.5466 616.744 30.341C617.095 29.7382 617.368 29.0683 617.524 28.3651C617.719 27.6618 617.836 26.8246 617.875 26.0543C617.914 24.4469 617.602 22.7054 616.744 21.031C616.199 20.2942 615.653 19.4236 614.679 18.6868Z" fill="#3F3F3F"/>
<path d="M600.062 20.0263C599.126 19.2895 597.411 18.6198 595.735 19.2226C594.215 19.7919 593.669 20.7631 593.319 21.4998C592.929 22.2701 592.851 23.0069 592.812 23.6432C592.734 24.9492 593.007 25.9539 593.241 26.6571C593.475 27.3604 593.708 27.6953 593.708 27.6953C593.708 27.6953 593.825 27.2934 594.059 26.6236C594.293 25.9873 594.605 25.0496 595.112 24.0784C595.385 23.6096 595.696 23.1072 596.047 22.7054C596.398 22.3035 596.866 22.0691 596.983 22.1361C596.905 22.2031 597.061 22.203 597.372 22.5044C597.684 22.8058 598.074 23.3082 598.347 23.8775C598.931 25.0161 599.36 26.3222 599.594 27.6283C599.711 28.298 599.828 28.8674 599.828 29.4702C599.828 30.073 599.867 30.6423 599.828 31.1447C599.75 32.1828 599.477 33.02 599.126 33.5223C598.737 34.0247 598.269 34.1922 598.269 34.1922C598.269 34.1587 598.737 34.3931 599.633 34.0582C600.491 33.7233 601.465 32.8861 602.128 31.6805C602.478 31.0777 602.751 30.4079 602.907 29.7047C603.102 29.0014 603.219 28.1642 603.258 27.3939C603.297 25.7864 602.985 24.045 602.128 22.3706C601.582 21.6003 600.997 20.7631 600.062 20.0263Z" fill="#3F3F3F"/>
<path d="M585.406 21.3659C584.471 20.6291 582.756 19.9594 581.08 20.5622C579.559 21.1315 579.014 22.1027 578.663 22.8394C578.273 23.6097 578.195 24.3465 578.156 24.9828C578.078 26.2888 578.351 27.2935 578.585 27.9967C578.819 28.7 579.053 29.0349 579.053 29.0349C579.053 29.0349 579.17 28.633 579.404 27.9632C579.637 27.3269 579.949 26.3893 580.456 25.4181C580.729 24.9493 581.041 24.4469 581.391 24.0451C581.742 23.6432 582.21 23.4087 582.327 23.4757C582.249 23.5427 582.405 23.5427 582.717 23.8441C583.028 24.1455 583.418 24.6478 583.691 25.2171C584.276 26.3557 584.704 27.6619 584.938 28.968C585.055 29.6377 585.172 30.207 585.172 30.8098C585.172 31.4126 585.211 31.9819 585.172 32.4843C585.094 33.5224 584.821 34.3596 584.471 34.8619C584.081 35.3643 583.613 35.5318 583.613 35.5318C583.613 35.4983 584.081 35.7327 584.977 35.3978C585.835 35.0629 586.809 34.2257 587.472 33.0201C587.823 32.4173 588.096 31.7475 588.251 31.0443C588.446 30.341 588.563 29.5038 588.602 28.7335C588.641 27.126 588.329 25.3846 587.472 23.7102C586.965 22.9399 586.38 22.1027 585.406 21.3659Z" fill="#3F3F3F"/>
<path d="M570.789 22.7055C569.854 21.9687 568.139 21.299 566.463 21.9018C564.943 22.4711 564.397 23.4422 564.046 24.179C563.657 24.9492 563.579 25.686 563.54 26.3223C563.462 27.6284 563.734 28.633 563.968 29.3363C564.202 30.0395 564.436 30.3744 564.436 30.3744C564.436 30.3744 564.553 29.9725 564.787 29.3028C565.021 28.6665 565.333 27.7289 565.839 26.7577C566.112 26.2888 566.424 25.7865 566.775 25.3846C567.125 24.9828 567.593 24.7483 567.71 24.8153C567.632 24.8823 567.788 24.8823 568.1 25.1837C568.412 25.4851 568.802 25.9875 569.074 26.5568C569.659 27.6954 570.088 29.0014 570.322 30.3075C570.439 30.9773 570.556 31.5465 570.595 32.1493C570.595 32.7521 570.634 33.3214 570.595 33.8238C570.517 34.8619 570.244 35.6992 569.893 36.2015C569.503 36.7039 569.035 36.8712 569.035 36.8712C569.035 36.8378 569.503 37.0721 570.4 36.7373C571.257 36.4024 572.232 35.5652 572.894 34.3596C573.245 33.7568 573.518 33.087 573.674 32.3838C573.869 31.6805 573.986 30.8433 574.025 30.073C574.064 28.4656 573.752 26.7242 572.894 25.0497C572.31 24.2795 571.764 23.4422 570.789 22.7055Z" fill="#3F3F3F"/>
<path d="M556.134 24.0449C555.199 23.3082 553.484 22.6383 551.808 23.2411C550.287 23.8104 549.742 24.7817 549.391 25.5184C549.001 26.2887 548.923 27.0254 548.884 27.6617C548.806 28.9677 549.079 29.9724 549.313 30.6757C549.547 31.3789 549.781 31.7138 549.781 31.7138C549.781 31.7138 549.898 31.312 550.132 30.6422C550.365 30.006 550.677 29.0682 551.184 28.0971C551.457 27.6282 551.769 27.1259 552.119 26.724C552.47 26.3221 552.938 26.0878 553.055 26.1547C552.977 26.2217 553.133 26.2217 553.445 26.5231C553.757 26.8245 554.146 27.3268 554.419 27.8961C555.004 29.0348 555.432 30.3408 555.666 31.6469C555.783 32.3166 555.9 32.8859 555.939 33.4887C555.939 34.0915 555.978 34.6608 555.939 35.1632C555.861 36.2013 555.588 37.0386 555.238 37.5409C554.848 38.0433 554.38 38.2107 554.38 38.2107C554.38 38.1772 554.848 38.4117 555.744 38.0768C556.602 37.7419 557.576 36.9046 558.239 35.699C558.59 35.0962 558.863 34.4264 559.019 33.7232C559.213 33.0199 559.33 32.1827 559.369 31.4124C559.408 29.805 559.096 28.0635 558.239 26.3891C557.693 25.6188 557.109 24.7817 556.134 24.0449Z" fill="#3F3F3F"/>
<path d="M541.517 25.3846C540.582 24.6478 538.867 23.9781 537.191 24.5809C535.671 25.1502 535.125 26.1213 534.774 26.8581C534.384 27.6283 534.306 28.365 534.267 29.0013C534.19 30.3074 534.462 31.3122 534.696 32.0154C534.93 32.7187 535.164 33.0536 535.164 33.0536C535.164 33.0536 535.281 32.6517 535.515 31.9819C535.749 31.3456 536.06 30.4079 536.567 29.4367C536.84 28.9679 537.152 28.4655 537.503 28.0636C537.854 27.6618 538.321 27.4274 538.438 27.4944C538.36 27.5614 538.516 27.5613 538.828 27.8627C539.14 28.1641 539.53 28.6665 539.802 29.2358C540.387 30.3744 540.816 31.6805 541.05 32.9865C541.167 33.6563 541.284 34.2257 541.284 34.8285C541.284 35.4313 541.323 36.0006 541.284 36.5029C541.206 37.5411 540.933 38.3783 540.582 38.8806C540.192 39.383 539.724 39.5504 539.724 39.5504C539.724 39.517 540.192 39.7513 541.089 39.4165C541.946 39.0816 542.921 38.2444 543.583 37.0388C543.934 36.436 544.207 35.7661 544.363 35.0628C544.558 34.3596 544.675 33.5223 544.714 32.7521C544.753 31.1446 544.441 29.4032 543.583 27.7287C543.038 26.9585 542.492 26.1213 541.517 25.3846Z" fill="#3F3F3F"/>
<path d="M526.901 26.724C525.965 25.9873 524.25 25.3175 522.574 25.9203C521.054 26.4897 520.508 27.4608 520.158 28.1976C519.768 28.9678 519.69 29.7046 519.651 30.3409C519.573 31.647 519.846 32.6516 520.08 33.3549C520.313 34.0582 520.547 34.3931 520.547 34.3931C520.547 34.3931 520.664 33.9912 520.898 33.3214C521.132 32.6851 521.444 31.7474 521.95 30.7762C522.223 30.3073 522.535 29.805 522.886 29.4031C523.237 29.0013 523.705 28.7669 523.821 28.8339C523.744 28.9008 523.899 28.9008 524.211 29.2022C524.523 29.5036 524.913 30.0059 525.186 30.5753C525.77 31.7139 526.199 33.0199 526.433 34.326C526.55 34.9958 526.667 35.5652 526.706 36.168C526.706 36.7708 526.745 37.3401 526.706 37.8424C526.628 38.8806 526.355 39.7178 526.004 40.2201C525.614 40.7224 525.147 40.8899 525.147 40.8899C525.147 40.8564 525.614 41.0908 526.511 40.7559C527.369 40.421 528.343 39.5838 529.006 38.3782C529.356 37.7754 529.629 37.1057 529.785 36.4024C529.98 35.6991 530.097 34.8619 530.136 34.0917C530.175 32.4842 529.863 30.7428 529.006 29.0683C528.421 28.2981 527.836 27.4608 526.901 26.724Z" fill="#3F3F3F"/>
<path d="M707.641 19.4235C707.913 18.7872 708.03 18.0505 707.952 17.3472C707.835 16.644 707.563 15.9741 707.134 15.4048C706.939 15.1034 706.666 14.869 706.354 14.6011C706.198 14.4672 706.081 14.4001 705.965 14.3331C705.77 14.1992 705.653 14.1322 705.458 14.0318C704.172 13.362 702.69 13.2951 701.599 13.5965C700.508 13.8644 699.806 14.4337 699.455 14.8356C699.104 15.2709 699.026 15.5388 698.987 15.5388C698.987 15.5388 699.26 15.3713 699.767 15.1704C700.274 14.9694 700.975 14.802 701.794 14.802C702.612 14.8355 703.509 15.07 704.171 15.5723C704.249 15.6393 704.366 15.7062 704.405 15.7397C704.483 15.8402 704.639 15.9406 704.678 16.0076C704.756 16.1415 704.912 16.309 705.029 16.4765C705.263 16.8114 705.38 17.2132 705.419 17.5816C705.458 17.9834 705.419 18.3853 705.302 18.7537C705.146 19.1221 704.99 19.457 704.678 19.8254C704.172 20.3947 703.353 20.8301 702.534 20.9975C701.755 21.165 700.975 21.1314 700.469 21.0309C699.923 20.9305 699.611 20.7966 699.611 20.7966C699.611 20.7966 699.767 21.031 700.235 21.3994C700.702 21.7343 701.482 22.1696 702.612 22.2366C703.743 22.3371 705.146 22.0357 706.276 21.098C706.861 20.6626 707.368 20.0598 707.641 19.4235Z" fill="#3F3F3F"/>
<path d="M702.378 19.9928C703.898 19.8588 705.029 18.6868 704.873 17.3472C704.717 16.0411 703.625 17.4476 702.105 17.6151C700.585 17.749 699.182 16.5435 699.338 17.8831C699.455 19.1891 700.858 20.1602 702.378 19.9928Z" fill="#3F3F3F"/>
<path d="M506.282 32.6516C507.1 32.6851 507.996 32.9195 508.659 33.4218C508.737 33.4888 508.854 33.5558 508.893 33.5892C508.971 33.6897 509.127 33.7902 509.166 33.8572C509.244 33.9912 509.4 34.1586 509.517 34.326C509.75 34.6609 509.867 35.0628 509.906 35.4312C509.945 35.8331 509.906 36.2349 509.789 36.6033C509.634 36.9717 509.478 37.3065 509.166 37.6749C508.659 38.2442 507.841 38.6796 507.022 38.847C506.243 39.0145 505.463 38.981 504.956 38.8805C504.411 38.7801 504.099 38.6461 504.099 38.6461C504.099 38.6461 504.255 38.8805 504.722 39.2489C505.19 39.5838 505.97 40.0191 507.1 40.0861C508.23 40.1866 509.634 39.8852 510.764 38.9475C511.271 38.5456 511.777 37.9763 512.05 37.3066C512.323 36.6703 512.44 35.9335 512.362 35.2303C512.245 34.527 511.972 33.8572 511.544 33.2879C511.349 32.9865 511.076 32.7521 510.764 32.4842C510.608 32.3502 510.491 32.2833 510.374 32.2163C510.179 32.0823 510.062 32.0153 509.867 31.9148C508.581 31.245 507.1 31.1781 506.009 31.4795C504.917 31.7474 504.216 32.3167 503.865 32.7186C503.514 33.154 503.436 33.4218 503.397 33.4218C503.397 33.4218 503.67 33.2544 504.177 33.0535C504.722 32.8191 505.463 32.6181 506.282 32.6516Z" fill="#3F3F3F"/>
<path d="M506.827 37.8759C508.347 37.742 509.477 36.5698 509.322 35.2303C509.166 33.9242 508.074 35.3307 506.554 35.4981C505.034 35.6321 503.631 34.4266 503.787 35.7661C503.904 37.0387 505.268 38.0099 506.827 37.8759Z" fill="#3F3F3F"/>
<path d="M71.7959 46.5159C110.15 52.7114 173.099 60.9161 276.663 60.9161C335.831 60.9161 403.692 58.2371 478.49 52.9459C481.063 61.8204 483.986 67.2456 489.482 67.2456C489.716 67.2456 489.91 67.2456 490.144 67.2121C497.316 66.5423 499.772 58.1031 500.59 51.2379L705.925 32.4841C706.705 32.4172 707.445 32.1827 708.069 31.8478C711.382 30.0394 716.683 24.4803 715.514 15.2039C714.383 5.92744 707.835 1.47344 704.132 0.267844C703.587 0.1004 703.002 -0.000123179 702.378 -0.000123233C702.222 -0.000123247 702.028 -8.85813e-05 701.872 0.0334003L496.81 18.7537C494.9 12.4243 491.197 4.92273 484.298 4.92273C484.025 4.92273 483.752 4.92276 483.479 4.95625C478.49 5.42509 476.307 9.61122 475.333 16.175C474.709 15.9071 474.047 15.7397 473.306 15.7397L473.267 15.7397C471.63 15.7397 470.344 16.5434 469.408 17.4811C468.551 16.8113 467.459 16.309 466.095 16.309L466.056 16.309C464.458 16.309 463.211 17.0793 462.236 17.9835C461.496 17.4811 460.599 17.0793 459.469 17.0458L459.43 17.0458C456.429 17.0458 454.636 19.6579 453.505 21.8347C418.62 25.1166 359.374 29.2022 280.873 29.2021C193.64 29.2021 102.822 24.2794 10.9515 14.5341L3.00013 13.6969L5.65058 20.1936C6.35218 21.935 14.1867 37.2395 71.7959 46.5159ZM491.587 59.2417C491.82 57.8017 492.015 55.7254 492.249 53.2807C492.366 52.0416 492.444 50.702 492.522 49.2955C492.6 47.889 492.561 46.382 492.639 44.8415C492.6 41.7605 492.561 38.4786 492.171 35.1967C492.054 33.5557 491.859 31.9149 491.587 30.3409C491.392 28.7334 491.08 27.1594 490.729 25.6524C490.456 24.1119 490.066 22.6719 489.677 21.2988C489.326 19.9258 488.975 18.6197 488.546 17.4476C488.156 16.242 487.806 15.1704 487.494 14.1992C487.104 13.2615 486.753 12.4242 486.48 11.721C485.935 10.3479 485.662 9.54421 485.662 9.54421C485.662 9.54421 486.13 10.281 486.909 11.5871C487.299 12.2569 487.767 13.027 488.273 13.9312C488.78 14.8689 489.248 15.9406 489.794 17.1127C490.378 18.2848 490.885 19.5574 491.314 20.9639C491.82 22.337 492.327 23.8105 492.678 25.351C493.068 26.8915 493.496 28.4655 493.73 30.1064C494.042 31.7474 494.276 33.4218 494.393 35.0962C494.588 36.7707 494.627 38.4451 494.666 40.0861C494.744 41.727 494.588 43.368 494.588 44.942C494.354 48.0899 494.042 51.0034 493.496 53.4816C493.029 55.9598 492.405 58.0027 492.015 59.4092C491.587 60.8157 491.236 61.6195 491.236 61.6195C491.236 61.6195 491.392 60.6817 491.587 59.2417ZM692.127 29.5037L515.636 45.6118C515.675 45.5113 515.714 45.4778 515.753 45.3774C515.948 44.8415 516.181 44.2387 516.454 43.5689C516.727 42.8991 516.922 42.1624 517.117 41.3922C517.351 40.6219 517.546 39.7847 517.663 38.914C518.013 37.1726 518.091 35.2637 518.091 33.3883C518.091 31.4794 517.897 29.6041 517.585 27.8292C517.429 26.925 517.234 26.0207 517.039 25.217L689.594 9.47729C690.295 10.348 690.958 11.2857 691.581 12.3908C692.049 13.161 692.4 13.9983 692.829 14.802C693.102 15.6727 693.53 16.5099 693.686 17.4141C693.92 18.3183 694.115 19.2225 694.154 20.1267C694.271 21.0309 694.232 21.9352 694.154 22.8059C694.154 23.6766 693.92 24.5138 693.725 25.3176C693.569 26.1213 693.297 26.858 692.985 27.5277C692.673 28.1975 692.478 28.8338 692.166 29.3362C692.205 29.4031 692.166 29.4367 692.127 29.5037ZM499.655 28.9343L513.18 27.6952C513.297 27.9966 513.453 28.298 513.57 28.6329C514.155 30.2069 514.7 31.9148 515.09 33.6562C515.48 35.3977 515.753 37.1725 515.792 38.847C515.831 39.6842 515.831 40.4879 515.792 41.2582C515.753 42.0284 515.714 42.7652 515.597 43.4349C515.48 44.1047 515.363 44.7411 515.285 45.2769C515.246 45.4108 515.207 45.5448 515.168 45.6787L500.551 47.0183C501.331 38.78 500.434 32.5176 499.655 28.9343ZM676.458 6.69765L516.454 22.9398C516.298 22.3705 516.104 21.8347 515.948 21.3324L676.458 6.69765ZM692.673 29.4702C693.063 29.0013 693.374 28.3985 693.764 27.7622C694.193 27.1259 694.583 26.3892 694.895 25.5854C695.206 24.7817 695.596 23.9445 695.752 23.0068C695.986 22.1026 696.181 21.1314 696.22 20.1267C696.337 19.1221 696.259 18.1174 696.181 17.1127C696.142 16.0746 695.83 15.1034 695.674 14.0988C695.362 13.1276 695.128 12.1564 694.739 11.2522C694.739 11.2187 694.7 11.1852 694.7 11.1182L708.654 9.84562C709.55 11.3861 710.252 13.295 710.564 15.7062C711.694 24.8151 705.341 28.298 705.341 28.298L692.673 29.4702ZM483.323 60.1124C483.323 60.1124 486.013 60.6148 487.572 58.0697C489.248 55.3236 490.144 50.9365 490.144 50.9365C490.144 50.9365 490.534 63.3944 486.792 63.2604C485.038 63.2604 483.323 60.1124 483.323 60.1124ZM246.065 37.4405C359.14 39.8517 414.683 34.7948 457.208 31.9483C457.52 32.9864 457.793 34.0915 458.066 35.1632C458.806 38.1437 459.391 41.1912 459.703 43.502C460.014 45.8127 460.053 47.3532 460.053 47.3532C460.053 47.3532 460.443 45.8462 460.872 43.502C461.262 41.1912 461.613 38.0433 461.807 34.8953C462.002 31.7474 462.002 28.5994 461.924 26.2217C461.924 25.351 461.885 24.6142 461.847 23.9779C461.847 23.9109 461.847 23.8775 461.847 23.8105C462.08 24.4468 462.392 25.351 462.782 26.4562C463.523 28.6329 464.419 31.6134 465.16 34.5939C465.9 37.5744 466.485 40.6219 466.797 42.9326C467.108 45.2434 467.147 46.7838 467.147 46.7838C467.147 46.7838 467.537 45.2768 467.966 42.9326C468.356 40.6219 468.707 37.4739 468.901 34.326C469.096 31.178 469.096 28.0301 469.018 25.6524C469.018 25.4849 469.018 25.3175 469.018 25.15C469.135 25.5184 469.291 25.9203 469.447 26.3891C470.188 28.5324 471.084 31.4124 471.786 34.326C472.526 37.2395 473.072 40.2201 473.384 42.4638C473.54 43.6025 473.618 44.5401 473.657 45.1764C473.696 45.8462 473.735 46.2146 473.735 46.2146C473.735 46.2146 473.813 45.8462 473.969 45.1764C474.124 44.5401 474.319 43.6025 474.514 42.4638C474.904 40.1866 475.294 37.1391 475.489 34.0581C475.645 31.8143 475.684 29.5371 475.684 27.5948C476.268 29.4701 476.931 31.6469 477.477 33.8907C478.217 36.8042 478.763 39.7847 479.075 42.0285C479.231 43.1671 479.309 44.1048 479.348 44.7411C479.386 45.4108 479.425 45.7792 479.425 45.7792C479.425 45.7792 479.503 45.4108 479.659 44.7411C479.815 44.1048 480.01 43.1671 480.205 42.0285C480.595 39.7512 480.985 36.7037 481.179 33.6227C481.296 31.7808 481.335 29.9724 481.335 28.298C481.374 28.432 481.413 28.5325 481.413 28.6664C481.452 28.9678 481.491 29.2692 481.569 29.6041C481.803 31.513 481.998 33.5223 482.037 35.5651C482.115 36.5698 481.998 37.5744 482.037 38.5791C481.998 39.5838 481.881 40.5214 481.803 41.4591C481.647 42.3968 481.491 43.2675 481.335 44.1048C481.102 44.942 480.907 45.7123 480.712 46.449C480.439 47.1523 480.166 47.7885 479.932 48.3578C479.893 48.4248 479.854 48.4918 479.815 48.5587L477.126 48.7598L477.087 48.7598C396.949 54.4194 331.271 56.6296 276.702 56.6295C180.31 56.6295 118.491 49.6639 72.7703 42.2963C16.3305 33.1873 10.4059 18.7536 10.4059 18.7536C10.4059 18.7536 71.8738 33.7232 246.065 37.4405Z" fill="#3F3F3F"/>
<path d="M83.0215 33.8572C93.2336 35.0293 104.303 36.1009 116.036 37.1726C127.768 38.1437 140.124 39.2155 152.987 39.9522C159.379 40.3876 165.927 40.7224 172.514 41.0573C179.102 41.3922 185.806 41.7941 192.549 42.0285C199.292 42.2964 206.113 42.5643 212.934 42.8657C219.755 43.0667 226.616 43.3011 233.437 43.502C247.118 43.9039 260.877 44.0713 274.363 44.1718C287.85 44.3057 301.141 44.2388 314.004 44.1384C320.435 44.1049 326.749 43.9709 332.947 43.837C339.144 43.636 345.186 43.435 351.072 43.2341C362.843 42.7987 373.991 42.196 384.242 41.6267C404.783 40.4546 421.816 38.8806 433.743 37.9764C445.671 37.0052 452.492 36.4694 452.492 36.4694C452.492 36.4694 450.777 36.5363 447.581 36.6368C444.384 36.7372 439.668 36.8713 433.665 37.1392C421.699 37.6415 404.588 38.3448 384.086 39.2155C373.835 39.5504 362.726 39.9187 350.955 40.0861C339.183 40.287 326.788 40.354 313.965 40.421C301.141 40.4545 287.889 40.3875 274.402 40.1866C260.916 40.0191 247.274 39.6843 233.554 39.2824C226.694 39.115 219.872 38.9475 213.051 38.7801C206.23 38.5457 199.448 38.3112 192.744 38.1103C186.001 37.9093 179.336 37.5744 172.748 37.273C166.161 36.9716 159.652 36.7038 153.259 36.3019C146.867 35.9335 140.553 35.5986 134.394 35.2637C128.236 34.8953 122.194 34.527 116.347 34.1586C104.615 33.3214 93.5454 32.4841 83.3332 31.5464C73.1211 30.5753 63.8054 29.6711 55.5032 28.7334C47.2399 27.7957 40.0679 26.8244 34.1433 25.9537C28.2577 25.016 23.6193 24.3128 20.5011 23.6765C17.3439 23.1072 15.7068 22.7053 15.7068 22.7053C15.7068 22.7053 22.2162 24.5473 33.9485 26.7575C45.7198 28.8673 62.5971 31.5799 83.0215 33.8572Z" fill="#3F3F3F"/>
<path d="M476 13.5C372.4 35.5 116.833 22.6667 3 13.5C11.5 83.5 448 58.5 477 51C489.4 35.4 483 18.8333 476 13.5Z" fill="black" stroke="black" stroke-width="5"/>
</svg>
