<svg width="716" height="68" viewBox="0 0 716 68" fill="none" xmlns="http://www.w3.org/2000/svg">
<path d="M687.84 12.0228C686.904 11.2861 685.189 10.6162 683.513 11.219C681.993 11.7883 681.447 12.7595 681.097 13.4963C680.707 14.2665 680.629 15.0033 680.59 15.6396C680.512 16.9457 680.785 17.9503 681.019 18.6536C681.253 19.3569 681.486 19.6917 681.486 19.6917C681.486 19.6917 681.603 19.29 681.837 18.6202C682.071 17.9839 682.383 17.0462 682.89 16.075C683.162 15.6061 683.474 15.1038 683.825 14.7019C684.176 14.3001 684.644 14.0656 684.76 14.1326C684.683 14.1995 684.838 14.1996 685.15 14.501C685.462 14.8024 685.852 15.3047 686.125 15.8741C686.709 17.0127 687.138 18.3187 687.372 19.6248C687.489 20.2946 687.606 20.8639 687.645 21.4667C687.645 22.0695 687.684 22.6388 687.645 23.1411C687.567 24.1793 687.294 25.0166 686.943 25.5189C686.553 26.0212 686.086 26.1886 686.086 26.1886C686.086 26.1551 686.553 26.3895 687.45 26.0546C688.307 25.7197 689.282 24.8826 689.945 23.6769C690.295 23.0741 690.568 22.4044 690.724 21.7011C690.919 20.9978 691.036 20.1606 691.075 19.3904C691.114 17.7829 690.802 16.0415 689.945 14.367C689.36 13.5968 688.814 12.7596 687.84 12.0228Z" fill="#3F3F3F"/>
<path d="M673.223 13.3623C672.288 12.6256 670.573 11.9557 668.896 12.5585C667.376 13.1278 666.831 14.0991 666.48 14.8358C666.09 15.606 666.012 16.3427 665.973 16.979C665.895 18.2851 666.168 19.2897 666.402 19.993C666.636 20.6962 666.87 21.0311 666.87 21.0311C666.87 21.0311 666.987 20.6293 667.22 19.9596C667.454 19.3233 667.766 18.3856 668.273 17.4144C668.546 16.9456 668.857 16.4432 669.208 16.0414C669.559 15.6395 670.027 15.4051 670.144 15.4721C670.066 15.5391 670.222 15.539 670.534 15.8404C670.845 16.1418 671.235 16.6442 671.508 17.2135C672.093 18.3521 672.521 19.6581 672.755 20.9642C672.872 21.634 672.989 22.2033 673.028 22.8061C673.028 23.4089 673.067 23.9782 673.028 24.4805C672.95 25.5187 672.677 26.3559 672.326 26.8582C671.937 27.3605 671.469 27.5279 671.469 27.5279C671.469 27.4944 671.937 27.7289 672.833 27.394C673.691 27.0592 674.665 26.2219 675.328 25.0163C675.679 24.4135 675.951 23.7437 676.107 23.0405C676.302 22.3372 676.419 21.5 676.458 20.7297C676.497 19.1223 676.185 17.3809 675.328 15.7064C674.743 14.9362 674.159 14.0991 673.223 13.3623Z" fill="#3F3F3F"/>
<path d="M658.568 14.7019C657.632 13.9652 655.917 13.2955 654.241 13.8982C652.721 14.4676 652.175 15.4387 651.825 16.1755C651.435 16.9457 651.357 17.6824 651.318 18.3187C651.24 19.6247 651.513 20.6295 651.747 21.3327C651.98 22.036 652.214 22.3709 652.214 22.3709C652.214 22.3709 652.331 21.969 652.565 21.2992C652.799 20.6629 653.111 19.7252 653.618 18.754C653.89 18.2852 654.202 17.7829 654.553 17.381C654.904 16.9791 655.372 16.7448 655.489 16.8117C655.411 16.8787 655.566 16.8787 655.878 17.1801C656.19 17.4815 656.58 17.9838 656.853 18.5531C657.437 19.6917 657.866 20.9978 658.1 22.3038C658.217 22.9736 658.334 23.543 658.373 24.1458C658.373 24.7486 658.412 25.3179 658.373 25.8202C658.295 26.8584 658.022 27.6956 657.671 28.1979C657.281 28.7002 656.814 28.8677 656.814 28.8677C656.814 28.8342 657.282 29.0686 658.178 28.7337C659.036 28.3988 660.01 27.5616 660.673 26.356C661.023 25.7533 661.296 25.0834 661.452 24.3801C661.647 23.6769 661.764 22.8397 661.803 22.0695C661.842 20.462 661.53 18.7206 660.673 17.0462C660.127 16.276 659.542 15.4387 658.568 14.7019Z" fill="#3F3F3F"/>
<path d="M643.951 16.0413C643.016 15.3046 641.301 14.6348 639.625 15.2376C638.104 15.8069 637.559 16.7781 637.208 17.5148C636.818 18.2851 636.74 19.0219 636.701 19.6582C636.623 20.9642 636.896 21.9689 637.13 22.6722C637.364 23.3754 637.598 23.7103 637.598 23.7103C637.598 23.7103 637.715 23.3084 637.949 22.6386C638.182 22.0023 638.494 21.0646 639.001 20.0934C639.274 19.6246 639.586 19.1224 639.936 18.7205C640.287 18.3186 640.755 18.0842 640.872 18.1511C640.794 18.2181 640.95 18.2181 641.262 18.5195C641.573 18.8209 641.963 19.3232 642.236 19.8925C642.821 21.0311 643.249 22.3373 643.483 23.6434C643.6 24.3131 643.717 24.8824 643.756 25.4852C643.756 26.088 643.795 26.6573 643.756 27.1597C643.678 28.1978 643.405 29.035 643.055 29.5374C642.665 30.0397 642.197 30.2072 642.197 30.2072C642.197 30.1737 642.665 30.4081 643.561 30.0732C644.419 29.7383 645.393 28.9011 646.056 27.6955C646.407 27.0927 646.68 26.4229 646.835 25.7197C647.03 25.0164 647.147 24.1792 647.186 23.4089C647.225 21.8015 646.913 20.06 646.056 18.3856C645.471 17.6153 644.926 16.7781 643.951 16.0413Z" fill="#3F3F3F"/>
<path d="M629.295 17.3475C628.36 16.6108 626.645 15.9409 624.969 16.5437C623.448 17.113 622.903 18.0843 622.552 18.821C622.162 19.5913 622.084 20.328 622.045 20.9643C621.967 22.2703 622.24 23.275 622.474 23.9782C622.708 24.6815 622.942 25.0164 622.942 25.0164C622.942 25.0164 623.059 24.6146 623.293 23.9448C623.526 23.3085 623.838 22.3708 624.345 21.3996C624.618 20.9308 624.93 20.4284 625.28 20.0266C625.631 19.6247 626.099 19.3904 626.216 19.4573C626.138 19.5243 626.294 19.5243 626.606 19.8257C626.918 20.1271 627.307 20.6294 627.58 21.1987C628.165 22.3373 628.594 23.6434 628.828 24.9494C628.944 25.6192 629.061 26.1884 629.061 26.7912C629.061 27.394 629.1 27.9633 629.061 28.4657C628.983 29.5038 628.711 30.3411 628.36 30.8434C627.97 31.3458 627.502 31.5131 627.502 31.5131C627.502 31.4797 627.97 31.7142 628.866 31.3793C629.724 31.0444 630.698 30.2071 631.361 29.0015C631.712 28.3987 631.985 27.7289 632.141 27.0257C632.336 26.3224 632.452 25.4852 632.491 24.715C632.53 23.1075 632.219 21.3661 631.361 19.6917C630.854 18.9549 630.27 18.1178 629.295 17.3475Z" fill="#3F3F3F"/>
<path d="M614.679 18.6871C613.743 17.9503 612.028 17.2806 610.352 17.8834C608.832 18.4527 608.286 19.4238 607.935 20.1606C607.546 20.9308 607.468 21.6675 607.429 22.3038C607.351 23.6099 607.624 24.6146 607.857 25.3179C608.091 26.0212 608.325 26.3561 608.325 26.3561C608.325 26.3561 608.442 25.9542 608.676 25.2844C608.91 24.6481 609.222 23.7104 609.728 22.7392C610.001 22.2704 610.313 21.768 610.664 21.3661C611.015 20.9643 611.482 20.7299 611.599 20.7969C611.521 20.8639 611.677 20.8638 611.989 21.1652C612.301 21.4666 612.691 21.969 612.964 22.5383C613.548 23.6769 613.977 24.983 614.211 26.289C614.328 26.9588 614.445 27.5282 614.445 28.131C614.445 28.7338 614.484 29.3031 614.445 29.8054C614.367 30.8436 614.094 31.6808 613.743 32.1831C613.353 32.6854 612.886 32.8529 612.886 32.8529C612.886 32.8194 613.353 33.0538 614.25 32.7189C615.107 32.3841 616.082 31.5469 616.744 30.3413C617.095 29.7385 617.368 29.0686 617.524 28.3653C617.719 27.6621 617.836 26.8248 617.875 26.0546C617.914 24.4471 617.602 22.7057 616.744 21.0312C616.199 20.2945 615.653 19.4238 614.679 18.6871Z" fill="#3F3F3F"/>
<path d="M600.062 20.0265C599.126 19.2898 597.411 18.62 595.735 19.2228C594.215 19.7921 593.669 20.7633 593.319 21.5001C592.929 22.2703 592.851 23.0071 592.812 23.6434C592.734 24.9495 593.007 25.9541 593.241 26.6574C593.475 27.3607 593.708 27.6955 593.708 27.6955C593.708 27.6955 593.825 27.2936 594.059 26.6239C594.293 25.9876 594.605 25.0499 595.112 24.0787C595.385 23.6098 595.696 23.1075 596.047 22.7056C596.398 22.3037 596.866 22.0694 596.983 22.1364C596.905 22.2033 597.061 22.2033 597.372 22.5047C597.684 22.8061 598.074 23.3084 598.347 23.8777C598.931 25.0164 599.36 26.3224 599.594 27.6285C599.711 28.2983 599.828 28.8677 599.828 29.4705C599.828 30.0733 599.867 30.6426 599.828 31.1449C599.75 32.1831 599.477 33.0203 599.126 33.5226C598.737 34.0249 598.269 34.1924 598.269 34.1924C598.269 34.1589 598.737 34.3933 599.633 34.0584C600.491 33.7235 601.465 32.8863 602.128 31.6807C602.478 31.0779 602.751 30.4082 602.907 29.7049C603.102 29.0016 603.219 28.1644 603.258 27.3942C603.297 25.7867 602.985 24.0453 602.128 22.3708C601.582 21.6006 600.997 20.7633 600.062 20.0265Z" fill="#3F3F3F"/>
<path d="M585.406 21.3661C584.471 20.6294 582.756 19.9596 581.08 20.5624C579.559 21.1317 579.014 22.1029 578.663 22.8397C578.273 23.6099 578.195 24.3467 578.156 24.983C578.078 26.2891 578.351 27.2937 578.585 27.997C578.819 28.7003 579.053 29.0351 579.053 29.0351C579.053 29.0351 579.17 28.6332 579.404 27.9635C579.637 27.3272 579.949 26.3896 580.456 25.4184C580.729 24.9495 581.041 24.4472 581.391 24.0453C581.742 23.6434 582.21 23.409 582.327 23.476C582.249 23.5429 582.405 23.543 582.717 23.8444C583.028 24.1458 583.418 24.648 583.691 25.2173C584.276 26.356 584.704 27.6621 584.938 28.9682C585.055 29.638 585.172 30.2073 585.172 30.8101C585.172 31.4129 585.211 31.9822 585.172 32.4845C585.094 33.5227 584.821 34.3599 584.471 34.8622C584.081 35.3645 583.613 35.532 583.613 35.532C583.613 35.4985 584.081 35.7329 584.977 35.398C585.835 35.0631 586.809 34.2259 587.472 33.0203C587.823 32.4175 588.096 31.7478 588.251 31.0445C588.446 30.3412 588.563 29.504 588.602 28.7338C588.641 27.1263 588.329 25.3849 587.472 23.7104C586.965 22.9402 586.38 22.1029 585.406 21.3661Z" fill="#3F3F3F"/>
<path d="M570.789 22.7057C569.854 21.969 568.139 21.2992 566.463 21.902C564.943 22.4713 564.397 23.4425 564.046 24.1792C563.657 24.9495 563.579 25.6863 563.54 26.3226C563.462 27.6286 563.734 28.6333 563.968 29.3365C564.202 30.0398 564.436 30.3747 564.436 30.3747C564.436 30.3747 564.553 29.9728 564.787 29.303C565.021 28.6667 565.333 27.7291 565.839 26.7579C566.112 26.2891 566.424 25.7868 566.775 25.3849C567.125 24.983 567.593 24.7486 567.71 24.8155C567.632 24.8825 567.788 24.8826 568.1 25.184C568.412 25.4854 568.802 25.9877 569.074 26.557C569.659 27.6956 570.088 29.0017 570.322 30.3077C570.439 30.9775 570.556 31.5468 570.595 32.1496C570.595 32.7524 570.634 33.3217 570.595 33.824C570.517 34.8622 570.244 35.6994 569.893 36.2018C569.503 36.7041 569.035 36.8715 569.035 36.8715C569.035 36.838 569.503 37.0724 570.4 36.7375C571.257 36.4026 572.232 35.5654 572.894 34.3598C573.245 33.757 573.518 33.0873 573.674 32.384C573.869 31.6808 573.986 30.8435 574.025 30.0733C574.064 28.4658 573.752 26.7244 572.894 25.05C572.31 24.2797 571.764 23.4425 570.789 22.7057Z" fill="#3F3F3F"/>
<path d="M556.134 24.0452C555.199 23.3084 553.484 22.6386 551.808 23.2414C550.287 23.8107 549.742 24.7819 549.391 25.5187C549.001 26.2889 548.923 27.0256 548.884 27.6619C548.806 28.968 549.079 29.9726 549.313 30.6759C549.547 31.3792 549.781 31.7141 549.781 31.7141C549.781 31.7141 549.898 31.3123 550.132 30.6425C550.365 30.0062 550.677 29.0685 551.184 28.0973C551.457 27.6285 551.769 27.1261 552.119 26.7242C552.47 26.3224 552.938 26.088 553.055 26.155C552.977 26.222 553.133 26.2219 553.445 26.5233C553.757 26.8247 554.146 27.3271 554.419 27.8964C555.004 29.035 555.432 30.341 555.666 31.6471C555.783 32.3169 555.9 32.8862 555.939 33.489C555.939 34.0918 555.978 34.6611 555.939 35.1634C555.861 36.2016 555.588 37.0389 555.238 37.5412C554.848 38.0435 554.38 38.2109 554.38 38.2109C554.38 38.1774 554.848 38.4119 555.744 38.077C556.602 37.7421 557.576 36.9048 558.239 35.6992C558.59 35.0964 558.863 34.4267 559.019 33.7234C559.213 33.0201 559.33 32.1829 559.369 31.4127C559.408 29.8052 559.096 28.0638 558.239 26.3893C557.693 25.6191 557.109 24.7819 556.134 24.0452Z" fill="#3F3F3F"/>
<path d="M541.517 25.3848C540.582 24.6481 538.867 23.9783 537.191 24.5811C535.671 25.1504 535.125 26.1216 534.774 26.8583C534.384 27.6286 534.306 28.3653 534.267 29.0016C534.19 30.3076 534.462 31.3124 534.696 32.0157C534.93 32.7189 535.164 33.0538 535.164 33.0538C535.164 33.0538 535.281 32.6519 535.515 31.9821C535.749 31.3459 536.06 30.4081 536.567 29.437C536.84 28.9681 537.152 28.4658 537.503 28.0639C537.854 27.662 538.321 27.4277 538.438 27.4946C538.36 27.5616 538.516 27.5616 538.828 27.863C539.14 28.1644 539.53 28.6667 539.802 29.236C540.387 30.3747 540.816 31.6807 541.05 32.9868C541.167 33.6566 541.284 34.2259 541.284 34.8287C541.284 35.4315 541.323 36.0008 541.284 36.5032C541.206 37.5413 540.933 38.3785 540.582 38.8809C540.192 39.3832 539.724 39.5507 539.724 39.5507C539.724 39.5172 540.192 39.7516 541.089 39.4167C541.946 39.0818 542.921 38.2446 543.583 37.039C543.934 36.4362 544.207 35.7663 544.363 35.0631C544.558 34.3598 544.675 33.5226 544.714 32.7523C544.753 31.1449 544.441 29.4034 543.583 27.729C543.038 26.9587 542.492 26.1216 541.517 25.3848Z" fill="#3F3F3F"/>
<path d="M526.901 26.7243C525.965 25.9875 524.25 25.3178 522.574 25.9206C521.054 26.4899 520.508 27.4611 520.158 28.1978C519.768 28.9681 519.69 29.7049 519.651 30.3412C519.573 31.6472 519.846 32.6519 520.08 33.3551C520.313 34.0584 520.547 34.3933 520.547 34.3933C520.547 34.3933 520.664 33.9914 520.898 33.3216C521.132 32.6853 521.444 31.7476 521.95 30.7764C522.223 30.3076 522.535 29.8052 522.886 29.4034C523.237 29.0015 523.705 28.7671 523.821 28.8341C523.744 28.9011 523.899 28.901 524.211 29.2024C524.523 29.5038 524.913 30.0062 525.186 30.5755C525.77 31.7141 526.199 33.0202 526.433 34.3263C526.55 34.996 526.667 35.5654 526.706 36.1682C526.706 36.771 526.745 37.3403 526.706 37.8427C526.628 38.8808 526.355 39.718 526.004 40.2203C525.614 40.7227 525.147 40.8902 525.147 40.8902C525.147 40.8567 525.614 41.0911 526.511 40.7562C527.369 40.4213 528.343 39.5841 529.006 38.3785C529.356 37.7757 529.629 37.1059 529.785 36.4027C529.98 35.6994 530.097 34.8622 530.136 34.0919C530.175 32.4844 529.863 30.743 529.006 29.0686C528.421 28.2983 527.836 27.4611 526.901 26.7243Z" fill="#3F3F3F"/>
<path d="M707.641 19.4238C707.913 18.7875 708.03 18.0507 707.952 17.3475C707.835 16.6442 707.563 15.9744 707.134 15.4051C706.939 15.1037 706.666 14.8693 706.354 14.6014C706.198 14.4674 706.081 14.4004 705.965 14.3334C705.77 14.1994 705.653 14.1325 705.458 14.032C704.172 13.3622 702.69 13.2953 701.599 13.5967C700.508 13.8646 699.806 14.4339 699.455 14.8358C699.104 15.2712 699.026 15.539 698.987 15.539C698.987 15.539 699.26 15.3715 699.767 15.1706C700.274 14.9697 700.975 14.8023 701.794 14.8023C702.612 14.8358 703.509 15.0702 704.171 15.5726C704.249 15.6395 704.366 15.7065 704.405 15.74C704.483 15.8404 704.639 15.9409 704.678 16.0078C704.756 16.1418 704.912 16.3093 705.029 16.4767C705.263 16.8116 705.38 17.2134 705.419 17.5818C705.458 17.9837 705.419 18.3856 705.302 18.754C705.146 19.1223 704.99 19.4573 704.678 19.8256C704.172 20.3949 703.353 20.8303 702.534 20.9978C701.755 21.1652 700.975 21.1317 700.469 21.0312C699.923 20.9307 699.611 20.7968 699.611 20.7968C699.611 20.7968 699.767 21.0312 700.235 21.3996C700.702 21.7345 701.482 22.1699 702.612 22.2368C703.743 22.3373 705.146 22.0359 706.276 21.0982C706.861 20.6629 707.368 20.0601 707.641 19.4238Z" fill="#3F3F3F"/>
<path d="M702.378 19.993C703.898 19.8591 705.029 18.687 704.873 17.3475C704.717 16.0414 703.625 17.4479 702.105 17.6153C700.585 17.7493 699.182 16.5437 699.338 17.8833C699.455 19.1894 700.858 20.1605 702.378 19.993Z" fill="#3F3F3F"/>
<path d="M506.282 32.6518C507.1 32.6853 507.996 32.9198 508.659 33.4221C508.737 33.4891 508.854 33.556 508.893 33.5895C508.971 33.69 509.127 33.7905 509.166 33.8575C509.244 33.9914 509.4 34.1588 509.517 34.3262C509.75 34.6611 509.867 35.0631 509.906 35.4314C509.945 35.8333 509.906 36.2352 509.789 36.6036C509.634 36.9719 509.478 37.3068 509.166 37.6751C508.659 38.2444 507.841 38.6798 507.022 38.8473C506.243 39.0147 505.463 38.9812 504.956 38.8808C504.411 38.7803 504.099 38.6463 504.099 38.6463C504.099 38.6463 504.255 38.8807 504.722 39.2491C505.19 39.584 505.97 40.0194 507.1 40.0863C508.23 40.1868 509.634 39.8854 510.764 38.9477C511.271 38.5459 511.777 37.9766 512.05 37.3068C512.323 36.6705 512.44 35.9338 512.362 35.2305C512.245 34.5272 511.972 33.8574 511.544 33.2881C511.349 32.9867 511.076 32.7523 510.764 32.4844C510.608 32.3504 510.491 32.2835 510.374 32.2165C510.179 32.0826 510.062 32.0155 509.867 31.915C508.581 31.2453 507.1 31.1784 506.009 31.4798C504.917 31.7477 504.216 32.317 503.865 32.7189C503.514 33.1542 503.436 33.4221 503.397 33.4221C503.397 33.4221 503.67 33.2547 504.177 33.0538C504.722 32.8193 505.463 32.6183 506.282 32.6518Z" fill="#3F3F3F"/>
<path d="M506.827 37.8762C508.347 37.7422 509.477 36.5701 509.322 35.2305C509.166 33.9244 508.074 35.3309 506.554 35.4984C505.034 35.6323 503.631 34.4268 503.787 35.7664C503.904 37.0389 505.268 38.0101 506.827 37.8762Z" fill="#3F3F3F"/>
<path d="M71.7959 46.5162C110.15 52.7116 173.099 60.9164 276.663 60.9164C335.831 60.9164 403.692 58.2374 478.49 52.9461C481.063 61.8207 483.986 67.2458 489.482 67.2458C489.716 67.2458 489.91 67.2458 490.144 67.2123C497.316 66.5425 499.772 58.1034 500.59 51.2381L705.925 32.4844C706.705 32.4174 707.445 32.183 708.069 31.8481C711.382 30.0397 716.683 24.4805 715.514 15.2041C714.383 5.92768 707.835 1.47369 704.132 0.268088C703.587 0.100644 703.002 0.000120962 702.378 0.000120908C702.222 0.000120894 702.028 0.000155559 701.872 0.0336444L496.81 18.7539C494.9 12.4245 491.197 4.92297 484.298 4.92297C484.025 4.92297 483.752 4.923 483.479 4.95649C478.49 5.42534 476.307 9.61147 475.333 16.1753C474.709 15.9074 474.047 15.7399 473.306 15.7399L473.267 15.7399C471.63 15.7399 470.344 16.5436 469.408 17.4813C468.551 16.8115 467.459 16.3093 466.095 16.3093L466.056 16.3093C464.458 16.3093 463.211 17.0795 462.236 17.9837C461.496 17.4814 460.599 17.0795 459.469 17.046L459.43 17.046C456.429 17.046 454.636 19.6581 453.505 21.8349C418.62 25.1168 359.374 29.2024 280.873 29.2024C193.64 29.2024 102.822 24.2796 10.9515 14.5343L3.00013 13.6971L5.65058 20.1939C6.35218 21.9353 14.1867 37.2397 71.7959 46.5162ZM491.587 59.2419C491.82 57.8019 492.015 55.7256 492.249 53.2809C492.366 52.0418 492.444 50.7023 492.522 49.2957C492.6 47.8892 492.561 46.3823 492.639 44.8418C492.6 41.7608 492.561 38.4789 492.171 35.1969C492.054 33.556 491.859 31.9151 491.587 30.3411C491.392 28.7337 491.08 27.1596 490.729 25.6526C490.456 24.1121 490.066 22.6721 489.677 21.2991C489.326 19.926 488.975 18.62 488.546 17.4479C488.156 16.2423 487.806 15.1706 487.494 14.1995C487.104 13.2618 486.753 12.4245 486.48 11.7212C485.935 10.3482 485.662 9.54446 485.662 9.54446C485.662 9.54446 486.13 10.2813 486.909 11.5873C487.299 12.2571 487.767 13.0273 488.273 13.9315C488.78 14.8692 489.248 15.9409 489.794 17.113C490.378 18.2851 490.885 19.5576 491.314 20.9642C491.82 22.3372 492.327 23.8107 492.678 25.3512C493.068 26.8917 493.496 28.4657 493.73 30.1067C494.042 31.7476 494.276 33.422 494.393 35.0965C494.588 36.7709 494.627 38.4453 494.666 40.0863C494.744 41.7273 494.588 43.3682 494.588 44.9422C494.354 48.0902 494.042 51.0037 493.496 53.4818C493.029 55.96 492.405 58.0029 492.015 59.4094C491.587 60.816 491.236 61.6197 491.236 61.6197C491.236 61.6197 491.392 60.682 491.587 59.2419ZM692.127 29.5039L515.636 45.612C515.675 45.5116 515.714 45.4781 515.753 45.3776C515.948 44.8418 516.181 44.2389 516.454 43.5692C516.727 42.8994 516.922 42.1627 517.117 41.3924C517.351 40.6222 517.546 39.785 517.663 38.9143C518.013 37.1728 518.091 35.2639 518.091 33.3885C518.091 31.4797 517.897 29.6044 517.585 27.8295C517.429 26.9253 517.234 26.021 517.039 25.2172L689.594 9.47753C690.295 10.3482 690.958 11.2859 691.581 12.391C692.049 13.1613 692.4 13.9985 692.829 14.8023C693.102 15.673 693.53 16.5102 693.686 17.4144C693.92 18.3186 694.115 19.2228 694.154 20.127C694.271 21.0312 694.232 21.9354 694.154 22.8061C694.154 23.6769 693.92 24.5141 693.725 25.3178C693.569 26.1215 693.297 26.8582 692.985 27.528C692.673 28.1978 692.478 28.8341 692.166 29.3364C692.205 29.4034 692.166 29.4369 692.127 29.5039ZM499.655 28.9345L513.18 27.6955C513.297 27.9969 513.453 28.2983 513.57 28.6332C514.155 30.2071 514.7 31.9151 515.09 33.6565C515.48 35.3979 515.753 37.1728 515.792 38.8472C515.831 39.6844 515.831 40.4882 515.792 41.2584C515.753 42.0287 515.714 42.7654 515.597 43.4352C515.48 44.105 515.363 44.7413 515.285 45.2771C515.246 45.4111 515.207 45.545 515.168 45.679L500.551 47.0185C501.331 38.7803 500.434 32.5179 499.655 28.9345ZM676.458 6.6979L516.454 22.94C516.298 22.3707 516.104 21.8349 515.948 21.3326L676.458 6.6979ZM692.673 29.4704C693.063 29.0016 693.374 28.3987 693.764 27.7624C694.193 27.1261 694.583 26.3894 694.895 25.5857C695.206 24.7819 695.596 23.9448 695.752 23.0071C695.986 22.1029 696.181 21.1316 696.22 20.127C696.337 19.1223 696.259 18.1177 696.181 17.113C696.142 16.0748 695.83 15.1037 695.674 14.099C695.362 13.1278 695.128 12.1566 694.739 11.2524C694.739 11.2189 694.7 11.1854 694.7 11.1185L708.654 9.84586C709.55 11.3864 710.252 13.2952 710.564 15.7064C711.694 24.8154 705.341 28.2983 705.341 28.2983L692.673 29.4704ZM483.323 60.1127C483.323 60.1127 486.013 60.6151 487.572 58.0699C489.248 55.3238 490.144 50.9368 490.144 50.9368C490.144 50.9368 490.534 63.3946 486.792 63.2606C485.038 63.2606 483.323 60.1127 483.323 60.1127ZM246.065 37.4407C359.14 39.8519 414.683 34.7951 457.208 31.9485C457.52 32.9867 457.793 34.0918 458.066 35.1634C458.806 38.1439 459.391 41.1915 459.703 43.5022C460.014 45.813 460.053 47.3534 460.053 47.3534C460.053 47.3534 460.443 45.8464 460.872 43.5022C461.262 41.1915 461.613 38.0435 461.807 34.8956C462.002 31.7476 462.002 28.5997 461.924 26.222C461.924 25.3512 461.885 24.6144 461.847 23.9782C461.847 23.9112 461.847 23.8777 461.847 23.8107C462.08 24.447 462.392 25.3513 462.782 26.4564C463.523 28.6332 464.419 31.6137 465.16 34.5942C465.9 37.5747 466.485 40.6221 466.797 42.9329C467.108 45.2436 467.147 46.7841 467.147 46.7841C467.147 46.7841 467.537 45.2771 467.966 42.9329C468.356 40.6221 468.707 37.4742 468.901 34.3262C469.096 31.1782 469.096 28.0303 469.018 25.6526C469.018 25.4852 469.018 25.3177 469.018 25.1503C469.135 25.5187 469.291 25.9205 469.447 26.3894C470.188 28.5326 471.084 31.4127 471.786 34.3262C472.526 37.2397 473.072 40.2203 473.384 42.4641C473.54 43.6027 473.618 44.5404 473.657 45.1767C473.696 45.8464 473.735 46.2148 473.735 46.2148C473.735 46.2148 473.813 45.8464 473.969 45.1767C474.124 44.5404 474.319 43.6027 474.514 42.4641C474.904 40.1868 475.294 37.1393 475.489 34.0583C475.645 31.8146 475.684 29.5374 475.684 27.595C476.268 29.4704 476.931 31.6472 477.477 33.8909C478.217 36.8045 478.763 39.785 479.075 42.0287C479.231 43.1673 479.309 44.105 479.348 44.7413C479.386 45.4111 479.425 45.7794 479.425 45.7794C479.425 45.7794 479.503 45.4111 479.659 44.7413C479.815 44.105 480.01 43.1673 480.205 42.0287C480.595 39.7515 480.985 36.7039 481.179 33.623C481.296 31.7811 481.335 29.9727 481.335 28.2982C481.374 28.4322 481.413 28.5327 481.413 28.6667C481.452 28.9681 481.491 29.2695 481.569 29.6044C481.803 31.5132 481.998 33.5226 482.037 35.5654C482.115 36.57 481.998 37.5747 482.037 38.5794C481.998 39.584 481.881 40.5217 481.803 41.4594C481.647 42.397 481.491 43.2678 481.335 44.105C481.102 44.9422 480.907 45.7125 480.712 46.4493C480.439 47.1525 480.166 47.7887 479.932 48.3581C479.893 48.425 479.854 48.492 479.815 48.559L477.126 48.76L477.087 48.76C396.949 54.4196 331.271 56.6298 276.702 56.6298C180.31 56.6298 118.491 49.6641 72.7703 42.2965C16.3305 33.1876 10.4059 18.7539 10.4059 18.7539C10.4059 18.7539 71.8738 33.7234 246.065 37.4407Z" fill="#3F3F3F"/>
<path d="M83.0215 33.8574C93.2336 35.0295 104.303 36.1012 116.036 37.1728C127.768 38.144 140.124 39.2157 152.987 39.9525C159.379 40.3878 165.927 40.7227 172.514 41.0576C179.102 41.3924 185.806 41.7943 192.549 42.0288C199.292 42.2967 206.113 42.5646 212.934 42.866C219.755 43.0669 226.616 43.3014 233.437 43.5023C247.118 43.9042 260.877 44.0715 274.363 44.172C287.85 44.306 301.141 44.2391 314.004 44.1386C320.435 44.1051 326.749 43.9712 332.947 43.8372C339.144 43.6363 345.186 43.4353 351.072 43.2343C362.843 42.799 373.991 42.1962 384.242 41.6269C404.783 40.4548 421.816 38.8808 433.743 37.9766C445.671 37.0055 452.492 36.4696 452.492 36.4696C452.492 36.4696 450.777 36.5365 447.581 36.637C444.384 36.7375 439.668 36.8715 433.665 37.1394C421.699 37.6418 404.588 38.345 384.086 39.2157C373.835 39.5506 362.726 39.9189 350.955 40.0864C339.183 40.2873 326.788 40.3543 313.965 40.4213C301.141 40.4548 287.889 40.3878 274.402 40.1868C260.916 40.0194 247.274 39.6845 233.554 39.2826C226.694 39.1152 219.872 38.9478 213.051 38.7803C206.23 38.5459 199.448 38.3114 192.744 38.1105C186.001 37.9096 179.336 37.5747 172.748 37.2733C166.161 36.9719 159.652 36.704 153.259 36.3022C146.867 35.9338 140.553 35.5988 134.394 35.2639C128.236 34.8955 122.194 34.5272 116.347 34.1588C104.615 33.3216 93.5454 32.4844 83.3332 31.5467C73.1211 30.5755 63.8054 29.6713 55.5032 28.7336C47.2399 27.7959 40.0679 26.8247 34.1433 25.954C28.2577 25.0163 23.6193 24.313 20.5011 23.6767C17.3439 23.1074 15.7068 22.7055 15.7068 22.7055C15.7068 22.7055 22.2162 24.5475 33.9485 26.7578C45.7198 28.8676 62.5971 31.5802 83.0215 33.8574Z" fill="#3F3F3F"/>
<path d="M476 13.5001C372.4 35.5001 116.833 22.6668 3 13.5001C11.5 83.5001 448 58.5001 477 51.0001C489.4 35.4001 483 18.8335 476 13.5001Z" fill="black" stroke="black" stroke-width="5"/>
<path d="M236.442 44.2514H231.362V53.0001H228.495V31.3734H235.655C238.091 31.3734 239.962 31.9279 241.269 33.037C242.586 34.1461 243.245 35.7601 243.245 37.8792C243.245 39.226 242.879 40.3994 242.146 41.3995C241.423 42.3997 240.413 43.1473 239.116 43.6424L244.196 52.8219V53.0001H241.136L236.442 44.2514ZM231.362 41.9194H235.744C237.16 41.9194 238.284 41.553 239.116 40.8202C239.957 40.0875 240.378 39.1071 240.378 37.8792C240.378 36.5424 239.977 35.5175 239.175 34.8046C238.383 34.0916 237.234 33.7302 235.729 33.7203H231.362V41.9194ZM256.747 51.4108C255.677 52.6684 254.108 53.2972 252.038 53.2972C250.325 53.2972 249.018 52.8021 248.117 51.8118C247.226 50.8117 246.775 49.3363 246.765 47.3855V36.9286H249.513V47.3112C249.513 49.7472 250.503 50.9652 252.484 50.9652C254.583 50.9652 255.979 50.1829 256.673 48.6183V36.9286H259.42V53.0001H256.806L256.747 51.4108Z" fill="white"/>
<path d="M240.735 43.0037H231.362V50.6681H242.25V53.0001H228.51V31.3734H242.101V33.7203H231.362V40.6717H240.735V43.0037ZM247.968 36.9286L248.057 38.9487C249.285 37.4039 250.89 36.6315 252.87 36.6315C256.267 36.6315 257.98 38.5477 258.009 42.3799V53.0001H255.261V42.365C255.252 41.2064 254.984 40.3499 254.459 39.7953C253.944 39.2408 253.137 38.9635 252.038 38.9635C251.147 38.9635 250.365 39.2012 249.691 39.6765C249.018 40.1518 248.493 40.7757 248.117 41.5481V53.0001H245.369V36.9286H247.968Z" fill="white"/>
</svg>
