<svg width="202" height="202" viewBox="0 0 202 202" fill="none" xmlns="http://www.w3.org/2000/svg">
<path d="M0 101V0H202V202H0" fill="#007ACC"/>
<path d="M44.2886 101.353V109.585H70.5486V184.325H89.1831V109.585H115.443V101.505C115.443 96.96 115.443 93.2735 115.241 93.1725C115.241 93.021 99.2326 92.9705 79.7901 92.9705L44.4401 93.122V101.404L44.2886 101.353ZM162.307 92.92C167.458 94.132 171.397 96.455 174.932 100.141C176.801 102.161 179.578 105.696 179.78 106.605C179.78 106.908 171.044 112.817 165.741 116.099C165.539 116.251 164.731 115.392 163.923 114.079C161.297 110.342 158.621 108.726 154.429 108.423C148.369 108.019 144.329 111.201 144.329 116.503C144.329 118.119 144.632 119.028 145.238 120.341C146.602 123.119 149.127 124.785 156.954 128.219C171.397 134.431 177.659 138.521 181.447 144.379C185.739 150.944 186.699 161.246 183.82 168.973C180.588 177.406 172.71 183.113 161.449 184.981C157.914 185.587 149.834 185.486 146.046 184.83C137.966 183.315 130.24 179.275 125.493 174.073C123.624 172.053 120.039 166.65 120.241 166.296L122.16 165.084L129.735 160.691L135.441 157.358L136.754 159.125C138.421 161.751 142.158 165.286 144.329 166.498C150.894 169.882 159.681 169.427 164.024 165.488C165.893 163.771 166.701 161.953 166.701 159.428C166.701 157.105 166.347 156.045 165.186 154.277C163.57 152.055 160.338 150.237 151.248 146.197C140.794 141.753 136.35 138.925 132.209 134.582C129.836 131.956 127.664 127.866 126.654 124.482C125.897 121.553 125.644 114.382 126.351 111.504C128.523 101.404 136.148 94.334 147.056 92.314C150.591 91.607 158.924 91.91 162.408 92.819L162.307 92.92Z" fill="white"/>
</svg>
