<svg width="716" height="104" viewBox="0 0 716 104" fill="none" xmlns="http://www.w3.org/2000/svg">
<path d="M687.84 48.0228C686.904 47.2861 685.189 46.6162 683.513 47.219C681.993 47.7883 681.447 48.7595 681.097 49.4963C680.707 50.2665 680.629 51.0033 680.59 51.6396C680.512 52.9457 680.785 53.9503 681.019 54.6536C681.253 55.3569 681.486 55.6917 681.486 55.6917C681.486 55.6917 681.603 55.29 681.837 54.6202C682.071 53.9839 682.383 53.0462 682.89 52.075C683.162 51.6061 683.474 51.1038 683.825 50.7019C684.176 50.3001 684.644 50.0656 684.76 50.1326C684.683 50.1995 684.838 50.1996 685.15 50.501C685.462 50.8024 685.852 51.3047 686.125 51.8741C686.709 53.0127 687.138 54.3187 687.372 55.6248C687.489 56.2946 687.606 56.8639 687.645 57.4667C687.645 58.0695 687.684 58.6388 687.645 59.1411C687.567 60.1793 687.294 61.0166 686.943 61.5189C686.553 62.0212 686.086 62.1886 686.086 62.1886C686.086 62.1551 686.553 62.3895 687.45 62.0546C688.307 61.7197 689.282 60.8826 689.945 59.6769C690.295 59.0741 690.568 58.4044 690.724 57.7011C690.919 56.9978 691.036 56.1606 691.075 55.3904C691.114 53.7829 690.802 52.0415 689.945 50.367C689.36 49.5968 688.814 48.7596 687.84 48.0228Z" fill="#3F3F3F"/>
<path d="M673.223 49.3623C672.288 48.6256 670.573 47.9557 668.896 48.5585C667.376 49.1278 666.831 50.0991 666.48 50.8358C666.09 51.606 666.012 52.3427 665.973 52.979C665.895 54.2851 666.168 55.2897 666.402 55.993C666.636 56.6962 666.87 57.0311 666.87 57.0311C666.87 57.0311 666.987 56.6293 667.22 55.9596C667.454 55.3233 667.766 54.3856 668.273 53.4144C668.546 52.9456 668.857 52.4432 669.208 52.0414C669.559 51.6395 670.027 51.4051 670.144 51.4721C670.066 51.5391 670.222 51.539 670.534 51.8404C670.845 52.1418 671.235 52.6442 671.508 53.2135C672.093 54.3521 672.521 55.6581 672.755 56.9642C672.872 57.634 672.989 58.2033 673.028 58.8061C673.028 59.4089 673.067 59.9782 673.028 60.4805C672.95 61.5187 672.677 62.3559 672.326 62.8582C671.937 63.3605 671.469 63.5279 671.469 63.5279C671.469 63.4944 671.937 63.7289 672.833 63.394C673.691 63.0592 674.665 62.2219 675.328 61.0163C675.679 60.4135 675.951 59.7437 676.107 59.0405C676.302 58.3372 676.419 57.5 676.458 56.7297C676.497 55.1223 676.185 53.3809 675.328 51.7064C674.743 50.9362 674.159 50.0991 673.223 49.3623Z" fill="#3F3F3F"/>
<path d="M658.568 50.7019C657.632 49.9652 655.917 49.2955 654.241 49.8982C652.721 50.4676 652.175 51.4387 651.825 52.1755C651.435 52.9457 651.357 53.6824 651.318 54.3187C651.24 55.6247 651.513 56.6295 651.747 57.3327C651.98 58.036 652.214 58.3709 652.214 58.3709C652.214 58.3709 652.331 57.969 652.565 57.2992C652.799 56.6629 653.111 55.7252 653.618 54.754C653.89 54.2852 654.202 53.7829 654.553 53.381C654.904 52.9791 655.372 52.7448 655.489 52.8117C655.411 52.8787 655.566 52.8787 655.878 53.1801C656.19 53.4815 656.58 53.9838 656.853 54.5531C657.437 55.6917 657.866 56.9978 658.1 58.3038C658.217 58.9736 658.334 59.543 658.373 60.1458C658.373 60.7486 658.412 61.3179 658.373 61.8202C658.295 62.8584 658.022 63.6956 657.671 64.1979C657.281 64.7002 656.814 64.8677 656.814 64.8677C656.814 64.8342 657.282 65.0686 658.178 64.7337C659.036 64.3988 660.01 63.5616 660.673 62.356C661.023 61.7533 661.296 61.0834 661.452 60.3801C661.647 59.6769 661.764 58.8397 661.803 58.0695C661.842 56.462 661.53 54.7206 660.673 53.0462C660.127 52.276 659.542 51.4387 658.568 50.7019Z" fill="#3F3F3F"/>
<path d="M643.951 52.0413C643.016 51.3046 641.301 50.6348 639.625 51.2376C638.104 51.8069 637.559 52.7781 637.208 53.5148C636.818 54.2851 636.74 55.0219 636.701 55.6582C636.623 56.9642 636.896 57.9689 637.13 58.6722C637.364 59.3754 637.598 59.7103 637.598 59.7103C637.598 59.7103 637.715 59.3084 637.949 58.6386C638.182 58.0023 638.494 57.0646 639.001 56.0934C639.274 55.6246 639.586 55.1224 639.936 54.7205C640.287 54.3186 640.755 54.0842 640.872 54.1511C640.794 54.2181 640.95 54.2181 641.262 54.5195C641.573 54.8209 641.963 55.3232 642.236 55.8925C642.821 57.0311 643.249 58.3373 643.483 59.6434C643.6 60.3131 643.717 60.8824 643.756 61.4852C643.756 62.088 643.795 62.6573 643.756 63.1597C643.678 64.1978 643.405 65.035 643.055 65.5374C642.665 66.0397 642.197 66.2072 642.197 66.2072C642.197 66.1737 642.665 66.4081 643.561 66.0732C644.419 65.7383 645.393 64.9011 646.056 63.6955C646.407 63.0927 646.68 62.4229 646.835 61.7197C647.03 61.0164 647.147 60.1792 647.186 59.4089C647.225 57.8015 646.913 56.06 646.056 54.3856C645.471 53.6153 644.926 52.7781 643.951 52.0413Z" fill="#3F3F3F"/>
<path d="M629.295 53.3475C628.36 52.6108 626.645 51.9409 624.969 52.5437C623.448 53.113 622.903 54.0843 622.552 54.821C622.162 55.5913 622.084 56.328 622.045 56.9643C621.967 58.2703 622.24 59.275 622.474 59.9782C622.708 60.6815 622.942 61.0164 622.942 61.0164C622.942 61.0164 623.059 60.6146 623.293 59.9448C623.526 59.3085 623.838 58.3708 624.345 57.3996C624.618 56.9308 624.93 56.4284 625.28 56.0266C625.631 55.6247 626.099 55.3904 626.216 55.4573C626.138 55.5243 626.294 55.5243 626.606 55.8257C626.918 56.1271 627.307 56.6294 627.58 57.1987C628.165 58.3373 628.594 59.6434 628.828 60.9494C628.944 61.6192 629.061 62.1884 629.061 62.7912C629.061 63.394 629.1 63.9633 629.061 64.4657C628.983 65.5038 628.711 66.3411 628.36 66.8434C627.97 67.3458 627.502 67.5131 627.502 67.5131C627.502 67.4797 627.97 67.7142 628.866 67.3793C629.724 67.0444 630.698 66.2071 631.361 65.0015C631.712 64.3987 631.985 63.7289 632.141 63.0257C632.336 62.3224 632.452 61.4852 632.491 60.715C632.53 59.1075 632.219 57.3661 631.361 55.6917C630.854 54.9549 630.27 54.1178 629.295 53.3475Z" fill="#3F3F3F"/>
<path d="M614.679 54.6871C613.743 53.9503 612.028 53.2806 610.352 53.8834C608.832 54.4527 608.286 55.4238 607.935 56.1606C607.546 56.9308 607.468 57.6675 607.429 58.3038C607.351 59.6099 607.624 60.6146 607.857 61.3179C608.091 62.0212 608.325 62.3561 608.325 62.3561C608.325 62.3561 608.442 61.9542 608.676 61.2844C608.91 60.6481 609.222 59.7104 609.728 58.7392C610.001 58.2704 610.313 57.768 610.664 57.3661C611.015 56.9643 611.482 56.7299 611.599 56.7969C611.521 56.8639 611.677 56.8638 611.989 57.1652C612.301 57.4666 612.691 57.969 612.964 58.5383C613.548 59.6769 613.977 60.983 614.211 62.289C614.328 62.9588 614.445 63.5282 614.445 64.131C614.445 64.7338 614.484 65.3031 614.445 65.8054C614.367 66.8436 614.094 67.6808 613.743 68.1831C613.353 68.6854 612.886 68.8529 612.886 68.8529C612.886 68.8194 613.353 69.0538 614.25 68.7189C615.107 68.3841 616.082 67.5469 616.744 66.3413C617.095 65.7385 617.368 65.0686 617.524 64.3653C617.719 63.6621 617.836 62.8248 617.875 62.0546C617.914 60.4471 617.602 58.7057 616.744 57.0312C616.199 56.2945 615.653 55.4238 614.679 54.6871Z" fill="#3F3F3F"/>
<path d="M600.062 56.0265C599.126 55.2898 597.411 54.62 595.735 55.2228C594.215 55.7921 593.669 56.7633 593.319 57.5001C592.929 58.2703 592.851 59.0071 592.812 59.6434C592.734 60.9495 593.007 61.9541 593.241 62.6574C593.475 63.3607 593.708 63.6955 593.708 63.6955C593.708 63.6955 593.825 63.2936 594.059 62.6239C594.293 61.9876 594.605 61.0499 595.112 60.0787C595.385 59.6098 595.696 59.1075 596.047 58.7056C596.398 58.3037 596.866 58.0694 596.983 58.1364C596.905 58.2033 597.061 58.2033 597.372 58.5047C597.684 58.8061 598.074 59.3084 598.347 59.8777C598.931 61.0164 599.36 62.3224 599.594 63.6285C599.711 64.2983 599.828 64.8677 599.828 65.4705C599.828 66.0733 599.867 66.6426 599.828 67.1449C599.75 68.1831 599.477 69.0203 599.126 69.5226C598.737 70.0249 598.269 70.1924 598.269 70.1924C598.269 70.1589 598.737 70.3933 599.633 70.0584C600.491 69.7235 601.465 68.8863 602.128 67.6807C602.478 67.0779 602.751 66.4082 602.907 65.7049C603.102 65.0016 603.219 64.1644 603.258 63.3942C603.297 61.7867 602.985 60.0453 602.128 58.3708C601.582 57.6006 600.997 56.7633 600.062 56.0265Z" fill="#3F3F3F"/>
<path d="M585.406 57.3661C584.471 56.6294 582.756 55.9596 581.08 56.5624C579.559 57.1317 579.014 58.1029 578.663 58.8397C578.273 59.6099 578.195 60.3467 578.156 60.983C578.078 62.2891 578.351 63.2937 578.585 63.997C578.819 64.7003 579.053 65.0351 579.053 65.0351C579.053 65.0351 579.17 64.6332 579.404 63.9635C579.637 63.3272 579.949 62.3896 580.456 61.4184C580.729 60.9495 581.041 60.4472 581.391 60.0453C581.742 59.6435 582.21 59.409 582.327 59.476C582.249 59.5429 582.405 59.543 582.717 59.8444C583.028 60.1458 583.418 60.648 583.691 61.2173C584.276 62.356 584.704 63.6621 584.938 64.9682C585.055 65.638 585.172 66.2073 585.172 66.8101C585.172 67.4129 585.211 67.9822 585.172 68.4845C585.094 69.5227 584.821 70.3599 584.471 70.8622C584.081 71.3645 583.613 71.532 583.613 71.532C583.613 71.4985 584.081 71.7329 584.977 71.398C585.835 71.0631 586.809 70.2259 587.472 69.0203C587.823 68.4175 588.096 67.7478 588.251 67.0445C588.446 66.3412 588.563 65.504 588.602 64.7338C588.641 63.1263 588.329 61.3849 587.472 59.7104C586.965 58.9402 586.38 58.1029 585.406 57.3661Z" fill="#3F3F3F"/>
<path d="M570.789 58.7057C569.854 57.969 568.139 57.2992 566.463 57.902C564.943 58.4713 564.397 59.4425 564.046 60.1792C563.657 60.9495 563.579 61.6863 563.54 62.3226C563.462 63.6286 563.734 64.6333 563.968 65.3365C564.202 66.0398 564.436 66.3747 564.436 66.3747C564.436 66.3747 564.553 65.9728 564.787 65.303C565.021 64.6667 565.333 63.7291 565.839 62.7579C566.112 62.2891 566.424 61.7868 566.775 61.3849C567.125 60.983 567.593 60.7486 567.71 60.8155C567.632 60.8825 567.788 60.8826 568.1 61.184C568.412 61.4854 568.802 61.9877 569.074 62.557C569.659 63.6956 570.088 65.0017 570.322 66.3077C570.439 66.9775 570.556 67.5468 570.595 68.1496C570.595 68.7524 570.634 69.3217 570.595 69.824C570.517 70.8622 570.244 71.6994 569.893 72.2018C569.503 72.7041 569.035 72.8715 569.035 72.8715C569.035 72.838 569.503 73.0724 570.4 72.7375C571.257 72.4026 572.232 71.5654 572.894 70.3598C573.245 69.757 573.518 69.0873 573.674 68.384C573.869 67.6808 573.986 66.8435 574.025 66.0733C574.064 64.4658 573.752 62.7244 572.894 61.05C572.31 60.2797 571.764 59.4425 570.789 58.7057Z" fill="#3F3F3F"/>
<path d="M556.134 60.0452C555.199 59.3084 553.484 58.6386 551.808 59.2414C550.287 59.8107 549.742 60.7819 549.391 61.5187C549.001 62.2889 548.923 63.0256 548.884 63.6619C548.806 64.968 549.079 65.9726 549.313 66.6759C549.547 67.3792 549.781 67.7141 549.781 67.7141C549.781 67.7141 549.898 67.3123 550.132 66.6425C550.365 66.0062 550.677 65.0685 551.184 64.0973C551.457 63.6285 551.769 63.1261 552.119 62.7242C552.47 62.3224 552.938 62.088 553.055 62.155C552.977 62.222 553.133 62.2219 553.445 62.5233C553.757 62.8247 554.146 63.3271 554.419 63.8964C555.004 65.035 555.432 66.341 555.666 67.6471C555.783 68.3169 555.9 68.8862 555.939 69.489C555.939 70.0918 555.978 70.6611 555.939 71.1634C555.861 72.2016 555.588 73.0389 555.238 73.5412C554.848 74.0435 554.38 74.2109 554.38 74.2109C554.38 74.1774 554.848 74.4119 555.744 74.077C556.602 73.7421 557.576 72.9048 558.239 71.6992C558.59 71.0964 558.863 70.4267 559.019 69.7234C559.213 69.0201 559.33 68.1829 559.369 67.4127C559.408 65.8052 559.096 64.0638 558.239 62.3893C557.693 61.6191 557.109 60.7819 556.134 60.0452Z" fill="#3F3F3F"/>
<path d="M541.517 61.3848C540.582 60.6481 538.867 59.9783 537.191 60.5811C535.671 61.1504 535.125 62.1216 534.774 62.8583C534.384 63.6286 534.306 64.3653 534.267 65.0016C534.19 66.3076 534.462 67.3124 534.696 68.0157C534.93 68.7189 535.164 69.0538 535.164 69.0538C535.164 69.0538 535.281 68.6519 535.515 67.9821C535.749 67.3459 536.06 66.4081 536.567 65.437C536.84 64.9681 537.152 64.4658 537.503 64.0639C537.854 63.662 538.321 63.4277 538.438 63.4946C538.36 63.5616 538.516 63.5616 538.828 63.863C539.14 64.1644 539.53 64.6667 539.802 65.236C540.387 66.3747 540.816 67.6807 541.05 68.9868C541.167 69.6566 541.284 70.2259 541.284 70.8287C541.284 71.4315 541.323 72.0008 541.284 72.5032C541.206 73.5413 540.933 74.3785 540.582 74.8809C540.192 75.3832 539.724 75.5507 539.724 75.5507C539.724 75.5172 540.192 75.7516 541.089 75.4167C541.946 75.0818 542.921 74.2446 543.583 73.039C543.934 72.4362 544.207 71.7663 544.363 71.0631C544.558 70.3598 544.675 69.5226 544.714 68.7523C544.753 67.1449 544.441 65.4034 543.583 63.729C543.038 62.9587 542.492 62.1216 541.517 61.3848Z" fill="#3F3F3F"/>
<path d="M526.901 62.7243C525.965 61.9875 524.25 61.3178 522.574 61.9206C521.054 62.4899 520.508 63.4611 520.158 64.1978C519.768 64.9681 519.69 65.7049 519.651 66.3412C519.573 67.6472 519.846 68.6519 520.08 69.3551C520.313 70.0584 520.547 70.3933 520.547 70.3933C520.547 70.3933 520.664 69.9914 520.898 69.3216C521.132 68.6853 521.444 67.7476 521.95 66.7764C522.223 66.3076 522.535 65.8052 522.886 65.4034C523.237 65.0015 523.705 64.7671 523.821 64.8341C523.744 64.9011 523.899 64.901 524.211 65.2024C524.523 65.5038 524.913 66.0062 525.186 66.5755C525.77 67.7141 526.199 69.0202 526.433 70.3263C526.55 70.996 526.667 71.5654 526.706 72.1682C526.706 72.771 526.745 73.3403 526.706 73.8427C526.628 74.8808 526.355 75.718 526.004 76.2203C525.614 76.7227 525.147 76.8902 525.147 76.8902C525.147 76.8567 525.614 77.0911 526.511 76.7562C527.369 76.4213 528.343 75.5841 529.006 74.3785C529.356 73.7757 529.629 73.1059 529.785 72.4027C529.98 71.6994 530.097 70.8622 530.136 70.0919C530.175 68.4844 529.863 66.743 529.006 65.0686C528.421 64.2983 527.836 63.4611 526.901 62.7243Z" fill="#3F3F3F"/>
<path d="M707.641 55.4238C707.913 54.7875 708.03 54.0507 707.952 53.3475C707.835 52.6442 707.563 51.9744 707.134 51.4051C706.939 51.1037 706.666 50.8693 706.354 50.6014C706.198 50.4674 706.081 50.4004 705.965 50.3334C705.77 50.1994 705.653 50.1325 705.458 50.032C704.172 49.3622 702.69 49.2953 701.599 49.5967C700.508 49.8646 699.806 50.4339 699.455 50.8358C699.104 51.2712 699.026 51.539 698.987 51.539C698.987 51.539 699.26 51.3715 699.767 51.1706C700.274 50.9697 700.975 50.8023 701.794 50.8023C702.612 50.8358 703.509 51.0702 704.171 51.5726C704.249 51.6395 704.366 51.7065 704.405 51.74C704.483 51.8404 704.639 51.9409 704.678 52.0078C704.756 52.1418 704.912 52.3093 705.029 52.4767C705.263 52.8116 705.38 53.2134 705.419 53.5818C705.458 53.9837 705.419 54.3856 705.302 54.754C705.146 55.1223 704.99 55.4573 704.678 55.8256C704.172 56.3949 703.353 56.8303 702.534 56.9978C701.755 57.1652 700.975 57.1317 700.469 57.0312C699.923 56.9307 699.611 56.7968 699.611 56.7968C699.611 56.7968 699.767 57.0312 700.235 57.3996C700.702 57.7345 701.482 58.1699 702.612 58.2368C703.743 58.3373 705.146 58.0359 706.276 57.0982C706.861 56.6629 707.368 56.0601 707.641 55.4238Z" fill="#3F3F3F"/>
<path d="M702.378 55.993C703.898 55.8591 705.029 54.687 704.873 53.3475C704.717 52.0414 703.625 53.4479 702.105 53.6153C700.585 53.7493 699.182 52.5437 699.338 53.8833C699.455 55.1894 700.858 56.1605 702.378 55.993Z" fill="#3F3F3F"/>
<path d="M506.282 68.6518C507.1 68.6853 507.996 68.9198 508.659 69.4221C508.737 69.4891 508.854 69.556 508.893 69.5895C508.971 69.69 509.127 69.7905 509.166 69.8575C509.244 69.9914 509.4 70.1588 509.517 70.3262C509.75 70.6611 509.867 71.0631 509.906 71.4314C509.945 71.8333 509.906 72.2352 509.789 72.6036C509.634 72.9719 509.478 73.3068 509.166 73.6751C508.659 74.2444 507.841 74.6798 507.022 74.8473C506.243 75.0147 505.463 74.9812 504.956 74.8808C504.411 74.7803 504.099 74.6463 504.099 74.6463C504.099 74.6463 504.255 74.8807 504.722 75.2491C505.19 75.584 505.97 76.0194 507.1 76.0863C508.23 76.1868 509.634 75.8854 510.764 74.9477C511.271 74.5459 511.777 73.9766 512.05 73.3068C512.323 72.6705 512.44 71.9338 512.362 71.2305C512.245 70.5272 511.972 69.8574 511.544 69.2881C511.349 68.9867 511.076 68.7523 510.764 68.4844C510.608 68.3504 510.491 68.2835 510.374 68.2165C510.179 68.0826 510.062 68.0155 509.867 67.9151C508.581 67.2453 507.1 67.1784 506.009 67.4798C504.917 67.7477 504.216 68.317 503.865 68.7189C503.514 69.1542 503.436 69.4221 503.397 69.4221C503.397 69.4221 503.67 69.2547 504.177 69.0538C504.722 68.8193 505.463 68.6183 506.282 68.6518Z" fill="#3F3F3F"/>
<path d="M506.827 73.8762C508.347 73.7422 509.477 72.5701 509.322 71.2305C509.166 69.9244 508.074 71.3309 506.554 71.4984C505.034 71.6323 503.631 70.4268 503.787 71.7664C503.904 73.0389 505.268 74.0101 506.827 73.8762Z" fill="#3F3F3F"/>
<path d="M71.7959 82.5162C110.15 88.7116 173.099 96.9164 276.663 96.9164C335.831 96.9164 403.692 94.2373 478.49 88.9461C481.063 97.8207 483.986 103.246 489.482 103.246C489.716 103.246 489.91 103.246 490.144 103.212C497.316 102.543 499.772 94.1034 500.59 87.2381L705.925 68.4844C706.705 68.4174 707.445 68.183 708.069 67.8481C711.382 66.0397 716.683 60.4805 715.514 51.2041C714.383 41.9277 707.835 37.4737 704.132 36.2681C703.587 36.1006 703.002 36.0001 702.378 36.0001C702.222 36.0001 702.028 36.0002 701.872 36.0336L496.81 54.7539C494.9 48.4245 491.197 40.923 484.298 40.923C484.025 40.923 483.752 40.923 483.479 40.9565C478.49 41.4253 476.307 45.6115 475.333 52.1753C474.709 51.9074 474.047 51.7399 473.306 51.7399L473.267 51.7399C471.63 51.7399 470.344 52.5436 469.408 53.4813C468.551 52.8115 467.459 52.3093 466.095 52.3093L466.056 52.3093C464.458 52.3093 463.211 53.0795 462.236 53.9837C461.496 53.4814 460.599 53.0795 459.469 53.046L459.43 53.046C456.429 53.046 454.636 55.6581 453.505 57.8349C418.62 61.1168 359.374 65.2024 280.873 65.2024C193.64 65.2024 102.822 60.2796 10.9515 50.5343L3.00013 49.6971L5.65058 56.1939C6.35218 57.9353 14.1868 73.2397 71.7959 82.5162ZM491.587 95.2419C491.82 93.8019 492.015 91.7256 492.249 89.2809C492.366 88.0418 492.444 86.7023 492.522 85.2957C492.6 83.8892 492.561 82.3823 492.639 80.8418C492.6 77.7608 492.561 74.4789 492.171 71.1969C492.054 69.556 491.859 67.9151 491.587 66.3411C491.392 64.7337 491.08 63.1596 490.729 61.6526C490.456 60.1121 490.066 58.6721 489.677 57.2991C489.326 55.926 488.975 54.62 488.546 53.4479C488.156 52.2423 487.806 51.1706 487.494 50.1995C487.104 49.2618 486.753 48.4245 486.48 47.7212C485.935 46.3482 485.662 45.5445 485.662 45.5445C485.662 45.5445 486.13 46.2813 486.909 47.5873C487.299 48.2571 487.767 49.0273 488.273 49.9315C488.78 50.8692 489.248 51.9409 489.794 53.113C490.378 54.2851 490.885 55.5576 491.314 56.9642C491.82 58.3372 492.327 59.8107 492.678 61.3512C493.068 62.8917 493.496 64.4657 493.73 66.1067C494.042 67.7476 494.276 69.422 494.393 71.0965C494.588 72.7709 494.627 74.4453 494.666 76.0863C494.744 77.7273 494.588 79.3682 494.588 80.9422C494.354 84.0902 494.042 87.0037 493.496 89.4818C493.029 91.96 492.405 94.0029 492.015 95.4094C491.587 96.816 491.236 97.6197 491.236 97.6197C491.236 97.6197 491.392 96.682 491.587 95.2419ZM692.127 65.5039L515.636 81.612C515.675 81.5116 515.714 81.4781 515.753 81.3776C515.948 80.8418 516.181 80.2389 516.454 79.5692C516.727 78.8994 516.922 78.1627 517.117 77.3924C517.351 76.6222 517.546 75.785 517.663 74.9143C518.013 73.1728 518.091 71.2639 518.091 69.3885C518.091 67.4797 517.897 65.6044 517.585 63.8295C517.429 62.9253 517.234 62.021 517.039 61.2172L689.594 45.4775C690.295 46.3482 690.958 47.2859 691.581 48.391C692.049 49.1613 692.4 49.9985 692.829 50.8023C693.102 51.673 693.53 52.5102 693.686 53.4144C693.92 54.3186 694.115 55.2228 694.154 56.127C694.271 57.0312 694.232 57.9354 694.154 58.8061C694.154 59.6769 693.92 60.5141 693.725 61.3178C693.569 62.1215 693.297 62.8582 692.985 63.528C692.673 64.1978 692.478 64.8341 692.166 65.3364C692.205 65.4034 692.166 65.4369 692.127 65.5039ZM499.655 64.9345L513.18 63.6955C513.297 63.9969 513.453 64.2983 513.57 64.6332C514.155 66.2071 514.7 67.9151 515.09 69.6565C515.48 71.3979 515.753 73.1728 515.792 74.8472C515.831 75.6844 515.831 76.4882 515.792 77.2584C515.753 78.0287 515.714 78.7654 515.597 79.4352C515.48 80.105 515.363 80.7413 515.285 81.2771C515.246 81.4111 515.207 81.545 515.168 81.679L500.551 83.0185C501.331 74.7803 500.434 68.5179 499.655 64.9345ZM676.458 42.6979L516.454 58.94C516.298 58.3707 516.104 57.8349 515.948 57.3326L676.458 42.6979ZM692.673 65.4704C693.063 65.0016 693.374 64.3987 693.764 63.7624C694.193 63.1261 694.583 62.3894 694.895 61.5857C695.206 60.7819 695.596 59.9448 695.752 59.0071C695.986 58.1029 696.181 57.1316 696.22 56.127C696.337 55.1223 696.259 54.1177 696.181 53.113C696.142 52.0748 695.83 51.1037 695.674 50.099C695.362 49.1278 695.128 48.1566 694.739 47.2524C694.739 47.2189 694.7 47.1854 694.7 47.1185L708.654 45.8459C709.55 47.3864 710.252 49.2952 710.564 51.7064C711.694 60.8154 705.341 64.2983 705.341 64.2983L692.673 65.4704ZM483.323 96.1127C483.323 96.1127 486.013 96.6151 487.572 94.0699C489.248 91.3238 490.144 86.9368 490.144 86.9368C490.144 86.9368 490.534 99.3946 486.792 99.2606C485.038 99.2606 483.323 96.1127 483.323 96.1127ZM246.065 73.4407C359.14 75.8519 414.683 70.7951 457.208 67.9485C457.52 68.9867 457.793 70.0918 458.066 71.1634C458.806 74.1439 459.391 77.1915 459.703 79.5022C460.014 81.813 460.053 83.3534 460.053 83.3534C460.053 83.3534 460.443 81.8464 460.872 79.5022C461.262 77.1915 461.613 74.0435 461.807 70.8956C462.002 67.7476 462.002 64.5997 461.924 62.222C461.924 61.3512 461.885 60.6144 461.847 59.9782C461.847 59.9112 461.847 59.8777 461.847 59.8107C462.08 60.447 462.392 61.3513 462.782 62.4564C463.523 64.6332 464.419 67.6137 465.16 70.5942C465.9 73.5747 466.485 76.6221 466.797 78.9329C467.108 81.2436 467.147 82.7841 467.147 82.7841C467.147 82.7841 467.537 81.2771 467.966 78.9329C468.356 76.6221 468.707 73.4742 468.901 70.3262C469.096 67.1783 469.096 64.0303 469.018 61.6526C469.018 61.4852 469.018 61.3177 469.018 61.1503C469.135 61.5187 469.291 61.9205 469.447 62.3894C470.188 64.5326 471.084 67.4127 471.786 70.3262C472.526 73.2397 473.072 76.2203 473.384 78.4641C473.54 79.6027 473.618 80.5404 473.657 81.1767C473.696 81.8464 473.735 82.2148 473.735 82.2148C473.735 82.2148 473.813 81.8464 473.969 81.1767C474.124 80.5404 474.319 79.6027 474.514 78.4641C474.904 76.1868 475.294 73.1393 475.489 70.0583C475.645 67.8146 475.684 65.5374 475.684 63.595C476.268 65.4704 476.931 67.6472 477.477 69.8909C478.217 72.8045 478.763 75.785 479.075 78.0287C479.231 79.1673 479.309 80.105 479.348 80.7413C479.386 81.4111 479.425 81.7794 479.425 81.7794C479.425 81.7794 479.503 81.4111 479.659 80.7413C479.815 80.105 480.01 79.1673 480.205 78.0287C480.595 75.7515 480.985 72.7039 481.179 69.623C481.296 67.7811 481.335 65.9727 481.335 64.2982C481.374 64.4322 481.413 64.5327 481.413 64.6667C481.452 64.9681 481.491 65.2695 481.569 65.6044C481.803 67.5132 481.998 69.5226 482.037 71.5654C482.115 72.57 481.998 73.5747 482.037 74.5794C481.998 75.584 481.881 76.5217 481.803 77.4594C481.647 78.397 481.491 79.2678 481.335 80.105C481.102 80.9422 480.907 81.7125 480.712 82.4493C480.439 83.1525 480.166 83.7887 479.932 84.3581C479.893 84.425 479.854 84.492 479.815 84.559L477.126 84.76L477.087 84.76C396.949 90.4196 331.271 92.6298 276.702 92.6298C180.31 92.6298 118.491 85.6641 72.7703 78.2965C16.3305 69.1876 10.4059 54.7539 10.4059 54.7539C10.4059 54.7539 71.8738 69.7234 246.065 73.4407Z" fill="#3F3F3F"/>
<path d="M83.0215 69.8574C93.2336 71.0295 104.303 72.1012 116.036 73.1728C127.768 74.144 140.124 75.2157 152.987 75.9525C159.379 76.3878 165.927 76.7227 172.514 77.0576C179.102 77.3924 185.806 77.7943 192.549 78.0288C199.292 78.2967 206.113 78.5646 212.934 78.866C219.755 79.0669 226.616 79.3014 233.437 79.5023C247.118 79.9042 260.877 80.0715 274.363 80.172C287.85 80.306 301.141 80.2391 314.004 80.1386C320.435 80.1051 326.749 79.9712 332.947 79.8372C339.144 79.6363 345.186 79.4353 351.072 79.2343C362.843 78.799 373.991 78.1962 384.242 77.6269C404.783 76.4548 421.816 74.8808 433.743 73.9766C445.671 73.0055 452.492 72.4696 452.492 72.4696C452.492 72.4696 450.777 72.5365 447.581 72.637C444.384 72.7375 439.668 72.8715 433.665 73.1394C421.699 73.6418 404.588 74.345 384.086 75.2157C373.835 75.5506 362.726 75.9189 350.955 76.0864C339.183 76.2873 326.788 76.3543 313.965 76.4213C301.141 76.4548 287.889 76.3878 274.402 76.1868C260.916 76.0194 247.274 75.6845 233.554 75.2826C226.694 75.1152 219.872 74.9478 213.051 74.7803C206.23 74.5459 199.448 74.3114 192.744 74.1105C186.001 73.9096 179.336 73.5747 172.748 73.2733C166.161 72.9719 159.652 72.704 153.259 72.3022C146.867 71.9338 140.553 71.5988 134.394 71.2639C128.236 70.8955 122.194 70.5272 116.347 70.1588C104.615 69.3216 93.5454 68.4844 83.3333 67.5467C73.1211 66.5755 63.8055 65.6713 55.5032 64.7336C47.2399 63.7959 40.0679 62.8247 34.1433 61.954C28.2577 61.0163 23.6193 60.313 20.5011 59.6767C17.3439 59.1074 15.7068 58.7055 15.7068 58.7055C15.7068 58.7055 22.2162 60.5475 33.9485 62.7578C45.7198 64.8676 62.5971 67.5802 83.0215 69.8574Z" fill="#3F3F3F"/>
<path d="M476 49.5001C372.4 71.5001 116.833 58.6668 3 49.5001C11.5 119.5 448 94.5001 477 87.0001C489.4 71.4001 483 54.8335 476 49.5001Z" fill="black" stroke="black" stroke-width="5"/>
<path d="M238.357 22.6465H232.346V33H228.953V7.40625H237.426C240.309 7.40625 242.523 8.0625 244.07 9.375C245.629 10.6875 246.408 12.5977 246.408 15.1055C246.408 16.6992 245.975 18.0879 245.107 19.2715C244.252 20.4551 243.057 21.3398 241.521 21.9258L247.533 32.7891V33H243.912L238.357 22.6465ZM232.346 19.8867H237.531C239.207 19.8867 240.537 19.4531 241.521 18.5859C242.518 17.7188 243.016 16.5586 243.016 15.1055C243.016 13.5234 242.541 12.3105 241.592 11.4668C240.654 10.623 239.295 10.1953 237.514 10.1836H232.346V19.8867ZM262.387 31.1191C261.121 32.6074 259.264 33.3516 256.814 33.3516C254.787 33.3516 253.24 32.7656 252.174 31.5938C251.119 30.4102 250.586 28.6641 250.574 26.3555V13.9805H253.826V26.2676C253.826 29.1504 254.998 30.5918 257.342 30.5918C259.826 30.5918 261.479 29.666 262.299 27.8145V13.9805H265.551V33H262.457L262.387 31.1191Z" fill="black"/>
<path d="M244.438 21.1699H233.346V30.2402H246.23V33H229.971V7.40625H246.055V10.1836H233.346V18.4102H244.438V21.1699ZM252.998 13.9805L253.104 16.3711C254.557 14.543 256.455 13.6289 258.799 13.6289C262.818 13.6289 264.846 15.8965 264.881 20.4316V33H261.629V20.4141C261.617 19.043 261.301 18.0293 260.68 17.373C260.07 16.7168 259.115 16.3887 257.814 16.3887C256.76 16.3887 255.834 16.6699 255.037 17.2324C254.24 17.7949 253.619 18.5332 253.174 19.4473V33H249.922V13.9805H252.998Z" fill="black"/>
</svg>
